<svg width="12" height="12" viewBox="0 0 12 12" fill="none" xmlns="http://www.w3.org/2000/svg">
<path d="M6 11C8.76142 11 11 8.76142 11 6C11 3.23858 8.76142 1 6 1C3.23858 1 1 3.23858 1 6C1 8.76142 3.23858 11 6 11Z" stroke="#3DC5A1" stroke-miterlimit="10" stroke-linecap="round" stroke-linejoin="round"/>
<path d="M4.94531 2.91406V3.91406" stroke="#3DC5A1" stroke-miterlimit="10" stroke-linecap="round" stroke-linejoin="round"/>
<path d="M7.05469 2.91406V3.91406" stroke="#3DC5A1" stroke-miterlimit="10" stroke-linecap="round" stroke-linejoin="round"/>
<path d="M3.76562 5.06836H8.23563" stroke="#3DC5A1" stroke-miterlimit="10" stroke-linecap="round" stroke-linejoin="round"/>
<path d="M6.75 8.83398H5.25C4 8.83398 3.25 7.93398 3.25 6.83398V5.33398C3.25 4.23398 4 3.33398 5.25 3.33398H6.75C8 3.33398 8.75 4.23398 8.75 5.33398V6.83398C8.75 7.93398 8 8.83398 6.75 8.83398Z" stroke="#3DC5A1" stroke-miterlimit="10" stroke-linecap="round" stroke-linejoin="round"/>
</svg>
