<svg width="16" height="15" viewBox="0 0 16 15" fill="none" xmlns="http://www.w3.org/2000/svg">
<path fill-rule="evenodd" clip-rule="evenodd" d="M5.6583 3.25707C5.6583 4.65707 4.50414 5.7918 3.07915 5.7918C1.65499 5.7918 0.5 4.65707 0.5 3.25707C0.5 1.85788 1.65499 0.723145 3.07915 0.723145C4.50414 0.723145 5.6583 1.85788 5.6583 3.25707ZM14.37 2.14689C14.9933 2.14689 15.5 2.64467 15.5 3.25706C15.5 3.87028 14.9933 4.36806 14.37 4.36806H9.43837C8.8142 4.36806 8.30754 3.87028 8.30754 3.25706C8.30754 2.64467 8.8142 2.14689 9.43837 2.14689H14.37ZM1.63083 10.4416H6.56247C7.18663 10.4416 7.69329 10.9394 7.69329 11.5526C7.69329 12.165 7.18663 12.6636 6.56247 12.6636H1.63083C1.00666 12.6636 0.5 12.165 0.5 11.5526C0.5 10.9394 1.00666 10.4416 1.63083 10.4416ZM12.9208 14.0565C14.3458 14.0565 15.5 12.9217 15.5 11.5226C15.5 10.1226 14.3458 8.98782 12.9208 8.98782C11.4967 8.98782 10.3417 10.1226 10.3417 11.5226C10.3417 12.9217 11.4967 14.0565 12.9208 14.0565Z" fill="white"/>
</svg>
