<svg width="22" height="19" viewBox="0 0 22 19" fill="none" xmlns="http://www.w3.org/2000/svg">
<path fill-rule="evenodd" clip-rule="evenodd" d="M11.6924 4.23737C11.3055 4.60869 10.6945 4.60869 10.3076 4.23737L9.6152 3.57291C8.80477 2.79519 7.70994 2.32031 6.5 2.32031C4.01472 2.32031 2 4.33503 2 6.82031C2 9.20294 3.28979 11.1704 5.15176 12.7869C7.01532 14.4048 9.2434 15.4778 10.5746 16.0254C10.853 16.1399 11.147 16.1399 11.4254 16.0254C12.7566 15.4778 14.9847 14.4047 16.8482 12.7869C18.7102 11.1704 20 9.20293 20 6.82031C20 4.33503 17.9853 2.32031 15.5 2.32031C14.2901 2.32031 13.1952 2.79518 12.3848 3.57291L11.6924 4.23737ZM11 2.12989C9.83211 1.00912 8.24649 0.320312 6.5 0.320312C2.91015 0.320312 0 3.23046 0 6.82031C0 13.1886 6.97034 16.7053 9.81379 17.875C10.5796 18.19 11.4204 18.19 12.1862 17.875C15.0297 16.7053 22 13.1886 22 6.82031C22 3.23046 19.0899 0.320312 15.5 0.320312C13.7535 0.320312 12.1679 1.00912 11 2.12989Z" fill="#777E91"/>
</svg>
