<svg width="40" height="40" viewBox="0 0 40 40" fill="none" xmlns="http://www.w3.org/2000/svg">
<path fill-rule="evenodd" clip-rule="evenodd" d="M11.3324 40H28.6656C35.4462 40 40 35.2438 40 28.1666V11.8334C40 4.75623 35.4462 0 28.6676 0H11.3324C4.55379 0 0 4.75623 0 11.8334V28.1666C0 35.2438 4.55379 40 11.3324 40ZM12.9977 18C10.2404 18 8 15.7565 8 13C8 10.2435 10.2404 8 12.9977 8C15.753 8 17.9954 10.2435 17.9954 13C17.9954 15.7565 15.753 18 12.9977 18ZM35.6416 25.8679C36.3113 27.5851 35.9634 29.6491 35.2474 31.3498C34.3987 33.3726 32.7737 34.904 30.7264 35.5728C29.8173 35.87 28.864 36 27.9128 36H11.0573C9.37999 36 7.89576 35.5975 6.67901 34.8483C5.91678 34.3777 5.78203 33.2921 6.34717 32.5882C7.29241 31.4118 8.22558 30.2312 9.1668 29.0402C10.9608 26.7616 12.1695 26.1011 13.5129 26.6811C14.0579 26.9205 14.605 27.2797 15.1681 27.6594C16.6684 28.6791 18.754 30.0805 21.5012 28.5593C23.3812 27.5064 24.4716 25.7003 25.4212 24.1274L25.437 24.1011C25.5043 23.9908 25.571 23.8805 25.6375 23.7704C25.9566 23.2424 26.2715 22.7215 26.6276 22.2415C27.0741 21.6409 28.7293 19.7626 30.8732 21.1001C32.2388 21.9422 33.3871 23.0815 34.6159 24.3013C35.0845 24.7678 35.4184 25.2982 35.6416 25.8679Z" fill="#ACB1BB"/>
</svg>
