<svg width="24" height="25" viewBox="0 0 24 25" fill="none" xmlns="http://www.w3.org/2000/svg">
<path fill-rule="evenodd" clip-rule="evenodd" d="M8.99858 10.3604C9.02798 10.9119 8.60474 11.3828 8.05324 11.4122C7.30055 11.4523 6.7044 11.5014 6.23854 11.5505C5.61292 11.6165 5.23278 12.0008 5.16959 12.5536C5.07886 13.3472 5 14.5483 5 16.3205C5 18.0928 5.07886 19.2938 5.16959 20.0874C5.23289 20.6412 5.61207 21.0244 6.23675 21.0903C7.33078 21.2058 9.13925 21.3205 12 21.3205C14.8608 21.3205 16.6692 21.2058 17.7632 21.0903C18.3879 21.0244 18.7671 20.6412 18.8304 20.0874C18.9211 19.2938 19 18.0928 19 16.3205C19 14.5483 18.9211 13.3472 18.8304 12.5536C18.7672 12.0008 18.3871 11.6165 17.7615 11.5505C17.2956 11.5014 16.6995 11.4523 15.9468 11.4122C15.3953 11.3828 14.972 10.9119 15.0014 10.3604C15.0308 9.80886 15.5017 9.38562 16.0532 9.41502C16.8361 9.45675 17.4669 9.50837 17.9712 9.56155C19.4556 9.7181 20.6397 10.7712 20.8175 12.3264C20.9188 13.2128 21 14.492 21 16.3205C21 18.149 20.9188 19.4282 20.8175 20.3146C20.6398 21.8689 19.4585 22.9225 17.9732 23.0793C16.7919 23.2039 14.9108 23.3205 12 23.3205C9.08922 23.3205 7.20806 23.2039 6.02684 23.0793C4.54151 22.9225 3.36021 21.8689 3.18253 20.3146C3.0812 19.4282 3 18.149 3 16.3205C3 14.492 3.0812 13.2128 3.18253 12.3264C3.36031 10.7712 4.54436 9.7181 6.02877 9.56155C6.53306 9.50837 7.16393 9.45675 7.94676 9.41502C8.49827 9.38562 8.96918 9.80886 8.99858 10.3604Z" fill="#777E91"/>
<path fill-rule="evenodd" clip-rule="evenodd" d="M9.20711 6.52742C8.81658 6.91794 8.18342 6.91794 7.79289 6.52742C7.40237 6.1369 7.40237 5.50373 7.79289 5.11321L11.2929 1.61321C11.6834 1.22268 12.3166 1.22268 12.7071 1.61321L16.2071 5.11321C16.5976 5.50373 16.5976 6.1369 16.2071 6.52742C15.8166 6.91794 15.1834 6.91794 14.7929 6.52742L13 4.73453V14.3203C13 14.8726 12.5523 15.3203 12 15.3203C11.4477 15.3203 11 14.8726 11 14.3203V4.73453L9.20711 6.52742Z" fill="#777E91"/>
</svg>
