<svg width="24" height="24" viewBox="0 0 24 24" fill="none" xmlns="http://www.w3.org/2000/svg">
<path d="M6 0C5.175 0 4.5 0.675 4.5 1.5V22.5C4.5 23.325 5.175 24 6 24H21C21.825 24 22.5 23.325 22.5 22.5V6L16.5 0H6Z" fill="#E2E5E7"/>
<path d="M18 6H22.5L16.5 0V4.5C16.5 5.325 17.175 6 18 6Z" fill="#B0B7BD"/>
<path d="M22.5 10.5L18 6H22.5V10.5Z" fill="#CAD1D8"/>
<path d="M19.5 19.5C19.5 19.9125 19.1625 20.25 18.75 20.25H2.25C1.8375 20.25 1.5 19.9125 1.5 19.5V12C1.5 11.5875 1.8375 11.25 2.25 11.25H18.75C19.1625 11.25 19.5 11.5875 19.5 12V19.5Z" fill="#F15642"/>
<path d="M5 16.0957H5.49023C5.49284 16.2116 5.5306 16.3053 5.60352 16.377C5.67773 16.4486 5.77344 16.4844 5.89062 16.4844C6.02604 16.4844 6.12891 16.4447 6.19922 16.3652C6.27083 16.2845 6.30664 16.168 6.30664 16.0156V14.0469H6.80859V16.0195C6.80859 16.306 6.72786 16.5286 6.56641 16.6875C6.40625 16.8464 6.18294 16.9258 5.89648 16.9258C5.62695 16.9258 5.41016 16.8503 5.24609 16.6992C5.08203 16.5469 5 16.3457 5 16.0957Z" fill="url(#paint0_linear_12277_48498)"/>
<path d="M7.52031 14.0469H8.61602C8.89727 14.0469 9.12578 14.1341 9.30156 14.3086C9.47734 14.4818 9.56523 14.709 9.56523 14.9902C9.56523 15.2702 9.47474 15.4974 9.29375 15.6719C9.11406 15.8464 8.88099 15.9336 8.59453 15.9336H8.02422V16.8652H7.52031V14.0469ZM8.02422 14.459V15.5273H8.48125C8.66224 15.5273 8.80286 15.4805 8.90313 15.3867C9.00339 15.293 9.05352 15.1608 9.05352 14.9902C9.05352 14.821 9.00339 14.6901 8.90313 14.5977C8.80417 14.5052 8.66419 14.459 8.4832 14.459H8.02422Z" fill="url(#paint1_linear_12277_48498)"/>
<path d="M11.9586 16.4395V16.8652H10.1344V14.0469H11.9586V14.4727H10.6383V15.2344H11.8863V15.6348H10.6383V16.4395H11.9586Z" fill="url(#paint2_linear_12277_48498)"/>
<path d="M15.0629 15.6895C15.0629 16.0723 14.9542 16.3717 14.7367 16.5879C14.5206 16.804 14.2198 16.9121 13.8344 16.9121C13.4229 16.9121 13.0974 16.7812 12.8578 16.5195C12.6195 16.2565 12.5004 15.8984 12.5004 15.4453C12.5004 14.9987 12.6189 14.6465 12.8559 14.3887C13.0941 14.1296 13.4171 14 13.8246 14C14.1449 14 14.4164 14.0866 14.6391 14.2598C14.8617 14.4329 14.9958 14.6608 15.0414 14.9434H14.5297C14.4815 14.7819 14.3956 14.6556 14.2719 14.5645C14.1482 14.4733 13.9997 14.4277 13.8266 14.4277C13.5727 14.4277 13.3741 14.5169 13.2309 14.6953C13.0876 14.8737 13.016 15.1217 13.016 15.4395C13.016 15.7637 13.0896 16.0189 13.2367 16.2051C13.3852 16.3913 13.5863 16.4844 13.8402 16.4844C14.0525 16.4844 14.2257 16.4232 14.3598 16.3008C14.4952 16.1784 14.5648 16.0182 14.5688 15.8203L14.5707 15.7734H13.891V15.3887H15.0629V15.6895Z" fill="url(#paint3_linear_12277_48498)"/>
<path d="M18.75 20.25H4.5V21H18.75C19.1625 21 19.5 20.6625 19.5 20.25V19.5C19.5 19.9125 19.1625 20.25 18.75 20.25Z" fill="#CAD1D8"/>
<defs>
<linearGradient id="paint0_linear_12277_48498" x1="5.12579" y1="16.9308" x2="15.2633" y2="15.5113" gradientUnits="userSpaceOnUse">
<stop stop-color="#D0E9E5"/>
<stop offset="0.470014" stop-color="#E8E9EE"/>
<stop offset="1" stop-color="#E8E9EE"/>
</linearGradient>
<linearGradient id="paint1_linear_12277_48498" x1="5.12579" y1="16.9308" x2="15.2633" y2="15.5113" gradientUnits="userSpaceOnUse">
<stop stop-color="#D0E9E5"/>
<stop offset="0.470014" stop-color="#E8E9EE"/>
<stop offset="1" stop-color="#E8E9EE"/>
</linearGradient>
<linearGradient id="paint2_linear_12277_48498" x1="5.12579" y1="16.9308" x2="15.2633" y2="15.5113" gradientUnits="userSpaceOnUse">
<stop stop-color="#D0E9E5"/>
<stop offset="0.470014" stop-color="#E8E9EE"/>
<stop offset="1" stop-color="#E8E9EE"/>
</linearGradient>
<linearGradient id="paint3_linear_12277_48498" x1="5.12579" y1="16.9308" x2="15.2633" y2="15.5113" gradientUnits="userSpaceOnUse">
<stop stop-color="#D0E9E5"/>
<stop offset="0.470014" stop-color="#E8E9EE"/>
<stop offset="1" stop-color="#E8E9EE"/>
</linearGradient>
</defs>
</svg>
