<svg width="16" height="16" viewBox="0 0 16 16" fill="none" xmlns="http://www.w3.org/2000/svg">
<path fill-rule="evenodd" clip-rule="evenodd" d="M4.4975 0.5H11.495C14.045 0.5 15.5 1.94 15.5 4.4975V11.5025C15.5 14.045 14.0525 15.5 11.5025 15.5H4.4975C1.94 15.5 0.5 14.045 0.5 11.5025V4.4975C0.5 1.94 1.94 0.5 4.4975 0.5ZM8.615 8.6225H10.745C11.09 8.615 11.3675 8.3375 11.3675 7.9925C11.3675 7.6475 11.09 7.37 10.745 7.37H8.615V5.255C8.615 4.91 8.3375 4.6325 7.9925 4.6325C7.6475 4.6325 7.37 4.91 7.37 5.255V7.37H5.2475C5.0825 7.37 4.925 7.4375 4.805 7.55C4.6925 7.67 4.625 7.82675 4.625 7.9925C4.625 8.3375 4.9025 8.615 5.2475 8.6225H7.37V10.745C7.37 11.09 7.6475 11.3675 7.9925 11.3675C8.3375 11.3675 8.615 11.09 8.615 10.745V8.6225Z" fill="white"/>
</svg>
