<svg width="330" height="330" viewBox="0 0 330 330" fill="none" xmlns="http://www.w3.org/2000/svg">
<path d="M81.8747 160.468C26.0076 196.736 26.0135 255.511 81.8747 291.812C137.736 328.114 228.316 328.081 284.183 291.812C340.05 255.544 340.044 196.769 284.183 160.468C228.322 124.166 137.742 124.199 81.8747 160.468Z" fill="#FAFAFA"/>
<path d="M300.363 248.424C300.324 248.433 300.283 248.433 300.244 248.424L296.766 247.5C296.719 247.486 296.676 247.462 296.641 247.428C296.605 247.395 296.578 247.354 296.561 247.308C296.528 247.216 293.505 238.167 299.947 225.904C304.567 217.153 311.748 211.464 316.335 212.962C317.197 213.2 317.981 213.662 318.608 214.301C319.235 214.939 319.683 215.732 319.905 216.598C320.096 217.601 320.025 218.637 319.699 219.604C319.373 220.572 318.803 221.439 318.044 222.123C317.681 222.472 317.12 222.948 316.407 223.555C312.018 227.29 301.729 236.042 300.62 248.127C300.615 248.17 300.602 248.211 300.58 248.248C300.559 248.286 300.53 248.319 300.495 248.344C300.46 248.384 300.414 248.411 300.363 248.424ZM297.063 246.985L300.033 247.75C301.353 235.6 311.596 226.868 316.005 223.126C316.704 222.525 317.259 222.057 317.602 221.72C318.289 221.109 318.806 220.331 319.104 219.462C319.403 218.592 319.472 217.661 319.305 216.757C319.106 215.99 318.708 215.29 318.15 214.727C317.592 214.165 316.895 213.761 316.13 213.556C311.807 212.15 304.91 217.707 300.462 226.208C294.614 237.369 296.726 245.77 297.083 246.985H297.063Z" fill="#3DC5A1"/>
<path d="M298.39 247.916H298.324C298.245 247.916 298.169 247.885 298.112 247.829C298.055 247.774 298.022 247.698 298.021 247.619C297.763 233.495 307.538 219.899 314.111 217.087C314.149 217.066 314.19 217.053 314.232 217.048C314.275 217.044 314.318 217.049 314.359 217.063C314.399 217.076 314.437 217.098 314.468 217.127C314.499 217.156 314.524 217.192 314.541 217.231C314.558 217.27 314.567 217.313 314.566 217.356C314.565 217.398 314.555 217.441 314.537 217.479C314.519 217.518 314.493 217.553 314.46 217.58C314.428 217.608 314.39 217.629 314.349 217.641C307.848 220.413 298.377 234.214 298.621 247.612C298.624 247.682 298.603 247.75 298.561 247.806C298.519 247.861 298.458 247.9 298.39 247.916Z" fill="#3DC5A1"/>
<path d="M296.89 247.533C296.847 247.543 296.802 247.543 296.758 247.533L294.402 246.84C294.355 246.827 294.311 246.803 294.276 246.77C294.24 246.736 294.213 246.694 294.197 246.648C294.158 246.51 290 233.019 293.062 214.843C294.626 205.603 300.019 196.554 305.899 193.373C308.724 191.842 311.503 191.65 314.149 192.799C314.802 193.03 315.393 193.408 315.877 193.903C316.361 194.399 316.725 194.998 316.941 195.657C317.911 199.102 314.341 204.237 310.565 209.635C307.925 213.43 305.186 217.351 303.965 220.809C303.957 220.852 303.939 220.892 303.914 220.928C303.889 220.963 303.856 220.992 303.818 221.014C303.781 221.036 303.739 221.049 303.695 221.053C303.652 221.057 303.609 221.052 303.567 221.037C303.526 221.023 303.489 221 303.457 220.97C303.426 220.94 303.402 220.903 303.385 220.863C303.369 220.823 303.362 220.779 303.364 220.736C303.366 220.692 303.378 220.65 303.398 220.611C304.672 217.074 307.43 213.12 310.097 209.292C313.793 204.012 317.284 198.99 316.387 195.822C316.198 195.249 315.878 194.727 315.453 194.299C315.028 193.871 314.509 193.547 313.938 193.353C311.463 192.277 308.863 192.456 306.209 193.901C300.481 197.003 295.214 205.854 293.669 214.942C290.805 231.95 294.296 244.794 294.739 246.318L296.943 246.978C296.981 246.989 297.016 247.008 297.047 247.033C297.077 247.059 297.103 247.09 297.121 247.125C297.14 247.16 297.151 247.198 297.154 247.238C297.158 247.277 297.153 247.317 297.141 247.354C297.118 247.403 297.083 247.446 297.039 247.477C296.995 247.508 296.944 247.527 296.89 247.533Z" fill="#3DC5A1"/>
<path d="M296.304 238.92C296.265 238.923 296.225 238.919 296.188 238.907C296.15 238.896 296.116 238.877 296.086 238.852C296.056 238.826 296.031 238.796 296.013 238.761C295.995 238.726 295.984 238.688 295.98 238.649C294.205 216.803 306.389 199.306 309.999 196.303C310.061 196.255 310.139 196.232 310.218 196.24C310.296 196.247 310.369 196.284 310.421 196.343C310.471 196.405 310.495 196.483 310.487 196.562C310.48 196.641 310.442 196.714 310.382 196.765C306.824 199.729 294.819 216.988 296.581 238.596C296.586 238.676 296.56 238.754 296.509 238.815C296.457 238.875 296.383 238.913 296.304 238.92Z" fill="#3DC5A1"/>
<path d="M92.6674 241.784C92.6237 241.782 92.5813 241.77 92.5434 241.748C92.5055 241.726 92.4733 241.696 92.4494 241.659C85.4016 231.779 72.094 229.405 66.4325 228.38C65.5109 228.214 64.7869 228.086 64.3029 227.963C63.3026 227.756 62.3726 227.295 61.6027 226.623C60.8328 225.952 60.2491 225.093 59.9079 224.131C59.6642 223.27 59.6519 222.36 59.8721 221.492C60.0923 220.625 60.5373 219.831 61.1622 219.191C64.3997 215.57 73.4569 216.878 81.8376 222.123C93.577 229.475 95.5207 238.816 95.5387 238.912C95.5473 238.96 95.5445 239.009 95.5305 239.056C95.5166 239.102 95.4918 239.145 95.4583 239.18L92.9016 241.701C92.8728 241.729 92.8376 241.75 92.799 241.761C92.7586 241.782 92.7126 241.791 92.6674 241.784ZM81.5095 222.635C73.3749 217.536 64.6293 216.2 61.6076 219.588C61.0575 220.152 60.6658 220.85 60.4722 221.614C60.2785 222.377 60.2898 223.178 60.5047 223.936C60.8157 224.801 61.3444 225.571 62.0398 226.172C62.7352 226.773 63.5738 227.184 64.4747 227.367C64.9407 227.485 65.6556 227.61 66.5682 227.774C72.2558 228.791 85.5193 231.169 92.7599 241.012L94.9406 238.856C94.6086 237.644 92.2036 229.321 81.5152 222.632L81.5095 222.635Z" fill="#3DC5A1"/>
<path d="M94.2508 240.333L94.285 240.313C94.3536 240.273 94.4038 240.208 94.4249 240.131C94.446 240.055 94.4363 239.973 94.3978 239.903C87.5095 227.57 72.2191 220.744 65.1239 221.624C65.081 221.625 65.0388 221.634 64.9998 221.652C64.9609 221.67 64.9262 221.695 64.8979 221.728C64.8697 221.76 64.8486 221.798 64.836 221.838C64.8234 221.879 64.8195 221.922 64.8248 221.965C64.83 222.007 64.8442 222.048 64.8664 222.085C64.8885 222.122 64.9182 222.153 64.9534 222.178C64.9886 222.202 65.0286 222.219 65.0707 222.226C65.1128 222.234 65.1561 222.233 65.1977 222.223C72.216 221.342 87.3413 228.501 93.8813 240.197C93.9145 240.262 93.971 240.312 94.0394 240.337C94.1079 240.362 94.1834 240.361 94.2508 240.333Z" fill="#3DC5A1"/>
<path d="M95.3862 239.23C95.4285 239.216 95.4674 239.193 95.5002 239.163L97.1586 237.395C97.1911 237.36 97.2148 237.317 97.2278 237.271C97.2408 237.225 97.2427 237.177 97.2334 237.13C97.1978 236.99 93.9987 223.241 82.2018 209.078C76.2041 201.878 66.9839 196.778 60.3071 196.987C57.0898 197.089 54.5984 198.319 52.8841 200.647C52.4376 201.176 52.1178 201.801 51.9491 202.472C51.7804 203.144 51.7672 203.845 51.9107 204.522C52.8069 207.987 58.4771 210.626 64.457 213.39C68.6486 215.34 72.9888 217.349 75.8135 219.705C75.8432 219.731 75.8777 219.75 75.9149 219.762C75.9521 219.774 75.9913 219.778 76.0302 219.775C76.0691 219.772 76.107 219.761 76.1418 219.743C76.1766 219.725 76.2075 219.701 76.2327 219.671C76.258 219.641 76.2772 219.607 76.2891 219.57C76.3011 219.532 76.3056 219.493 76.3025 219.454C76.2993 219.415 76.2885 219.378 76.2706 219.343C76.2528 219.308 76.2283 219.277 76.1985 219.252C73.3003 216.808 68.9206 214.784 64.7124 212.806C58.8607 210.105 53.3154 207.523 52.496 204.334C52.3709 203.743 52.3845 203.132 52.536 202.548C52.6875 201.964 52.9727 201.423 53.369 200.968C54.9658 198.793 57.3024 197.637 60.3225 197.551C66.834 197.347 75.8405 202.342 81.7503 209.417C92.788 222.671 96.2089 235.542 96.6229 237.065L95.0505 238.745C94.9974 238.805 94.9695 238.882 94.9729 238.962C94.9764 239.041 95.0108 239.116 95.0689 239.17C95.1112 239.208 95.1632 239.234 95.2192 239.244C95.2751 239.255 95.3329 239.25 95.3862 239.23Z" fill="#3DC5A1"/>
<path d="M91.5219 231.511C91.5575 231.494 91.5894 231.471 91.6159 231.442C91.6423 231.413 91.6628 231.379 91.6761 231.342C91.6894 231.306 91.6953 231.266 91.6934 231.227C91.6915 231.188 91.6819 231.15 91.6651 231.114C82.205 211.365 62.8889 202.363 58.2668 201.588C58.1876 201.578 58.1074 201.598 58.0424 201.644C57.9773 201.691 57.9322 201.76 57.9161 201.838C57.904 201.917 57.9231 201.997 57.9692 202.061C58.0154 202.125 58.0849 202.169 58.1629 202.183C62.7285 202.953 81.7905 211.821 91.1524 231.375C91.1878 231.438 91.2444 231.486 91.3121 231.511C91.3798 231.536 91.4542 231.536 91.5219 231.511Z" fill="#3DC5A1"/>
<path d="M207.899 270.64L215.423 266.298C235.091 254.939 235.091 236.525 215.423 225.166L181.638 205.663C161.97 194.305 130.072 194.305 110.397 205.663L102.873 210.006C83.1985 221.365 83.1985 239.779 102.873 251.138L136.619 270.64C156.313 281.999 188.211 281.999 207.899 270.64Z" fill="#E0E0E0"/>
<path d="M293.442 274.713C309.315 265.552 309.315 250.689 293.442 241.522C277.569 232.354 251.829 232.361 235.956 241.522C220.083 250.682 220.083 265.546 235.956 274.713C251.829 283.88 277.562 283.88 293.442 274.713Z" fill="#E0E0E0"/>
<path d="M126.548 125.883C126.178 124.807 125.05 123.903 123.908 124.398C121.446 125.46 120.489 125.599 117.717 125.83C115.609 125.852 113.526 125.375 111.639 124.437C109.776 123.384 108.206 121.883 107.07 120.07C105.934 118.258 105.267 116.19 105.131 114.055C105 111.826 105.266 109.592 105.916 107.455C111.771 110.623 120.014 109.264 124.449 104.208C127.749 100.466 127.003 95.7999 122.218 93.8265C117.433 91.8531 110.451 92.5527 106.121 95.3049C105.663 95.5984 105.222 95.918 104.801 96.2619C105.355 91.6419 107.217 87.0219 113.275 84.2961C113.982 83.9727 114.595 83.1609 113.751 83.0421C108.471 82.3425 104.095 85.6821 101.791 90.1833C99.9896 93.7143 99.0854 97.8327 100.511 101.509C99.2603 103.778 98.3696 106.227 97.871 108.769C96.9734 113.283 97.7258 119.408 99.719 122.932C102.438 127.75 106.557 131.658 114.582 132.925C118.932 133.591 128.785 132.39 126.548 125.883ZM117.308 98.5653C119.512 98.5653 121.512 99.4893 120.106 101.344C119.295 102.42 118.067 103.047 116.463 103.66C113.988 104.611 110.569 103.997 108.207 102.756C110.431 99.8721 113.652 98.5851 117.321 98.5653H117.308Z" fill="#3DC5A1"/>
<path opacity="0.2" d="M100.519 101.516C99.5717 103.24 98.836 105.073 98.3281 106.974C100.057 109.128 102.49 110.605 105.199 111.145C105.316 109.896 105.559 108.662 105.925 107.462C102.427 105.429 101.49 103.621 100.519 101.516Z" fill="black"/>
<path opacity="0.2" d="M108.239 102.755C108.513 102.401 108.808 102.064 109.123 101.746C108.115 101.166 107.221 100.408 106.483 99.5082C104.926 97.6602 104.827 96.2676 104.827 96.2676C104.675 98.538 106.213 101.64 108.239 102.755Z" fill="black"/>
<path d="M176.274 230.934C176.274 230.888 176.274 230.842 176.274 230.796V230.657C176.73 227.456 174.862 224.15 170.645 221.648C163.022 217.14 150.482 216.975 142.74 221.351C138.463 223.754 136.523 227.021 136.912 230.228V230.38C136.912 230.42 128.715 229.225 128.715 229.225L130.583 231.205C135.598 236.594 138.865 243.375 139.955 250.655L140.997 257.598V257.671C141.334 259.651 142.779 261.545 145.36 263.07C151.3 266.601 161.061 266.706 167.1 263.307C169.74 261.836 171.199 259.955 171.575 258.027V257.975C171.572 257.959 171.572 257.944 171.575 257.928L176.274 230.934Z" fill="#3DC5A1"/>
<path opacity="0.1" d="M176.274 230.934C176.274 230.888 176.274 230.842 176.274 230.796V230.657C176.73 227.456 174.862 224.15 170.645 221.648C163.022 217.14 150.482 216.975 142.74 221.351C138.463 223.754 136.523 227.021 136.912 230.228V230.38C136.912 230.42 128.715 229.225 128.715 229.225L130.583 231.205C135.598 236.594 138.865 243.375 139.955 250.655L140.997 257.598V257.671C141.334 259.651 142.779 261.545 145.36 263.07C151.3 266.601 161.061 266.706 167.1 263.307C169.74 261.836 171.199 259.955 171.575 258.027V257.975C171.572 257.959 171.572 257.944 171.575 257.928L176.274 230.934Z" fill="white"/>
<path d="M135.193 206.621V206.489V206.344C135.655 203.143 133.727 199.928 129.563 197.335C126.626 195.506 111.221 195.355 102.305 195.243C97.0248 195.183 94.101 194.615 94.4904 197.83V197.975C94.4904 198.021 88.6758 190.662 88.6758 190.662C93.2094 199.842 96.31 209.662 97.8696 219.781L99.9354 233.324V233.41C100.265 235.39 101.717 237.278 104.291 238.803C110.231 242.334 119.993 242.439 126.032 239.04C128.672 237.568 130.137 235.687 130.507 233.76V233.641C130.51 233.626 130.51 233.61 130.507 233.595L135.193 206.621Z" fill="#3DC5A1"/>
<path d="M181.032 215.544V215.405V215.26C180.643 212.053 182.642 208.885 186.86 206.383C189.836 204.614 205.241 204.779 214.157 204.872C219.437 204.931 222.368 204.43 221.912 207.631V207.776V207.908L215.788 242.987V243.053C215.411 245.033 213.92 246.887 211.313 248.333C205.274 251.732 195.539 251.633 189.572 248.095C186.992 246.571 185.546 244.657 185.21 242.696V242.644C185.207 242.628 185.207 242.613 185.21 242.597L181.032 215.544Z" fill="#3DC5A1"/>
<path d="M181.032 215.544V215.405V215.26C180.643 212.053 182.642 208.885 186.86 206.383C189.836 204.614 205.241 204.779 214.157 204.872C219.437 204.931 222.368 204.43 221.912 207.631V207.776V207.908L215.788 242.987V243.053C215.411 245.033 213.92 246.887 211.313 248.333C205.274 251.732 195.539 251.633 189.572 248.095C186.992 246.571 185.546 244.657 185.21 242.696V242.644C185.207 242.628 185.207 242.613 185.21 242.597L181.032 215.544Z" fill="#3DC5A1"/>
<path d="M180.048 114.491C171.336 110.603 159.449 108.993 149.252 108.881C132.546 108.701 116.453 115.165 104.513 126.85C92.5726 138.536 85.763 154.485 85.5819 171.191C85.3311 194.337 97.4619 216.071 114.53 229.225C122.76 235.561 134.844 242.088 142.382 245.151C155.225 250.365 163.317 250.926 174.953 251.051C191.655 251.231 207.745 244.77 219.685 233.089C231.625 221.407 238.436 205.463 238.623 188.76C238.794 172.788 232.868 158.585 223.403 147.22C219.483 142.514 213.233 135.3 208.283 131.644C198.66 124.496 189.73 118.8 180.048 114.491Z" fill="#3DC5A1"/>
<path opacity="0.3" d="M180.048 114.491C171.336 110.603 159.449 108.993 149.252 108.881C132.546 108.701 116.453 115.165 104.513 126.85C92.5726 138.536 85.763 154.485 85.5819 171.191C85.3311 194.337 97.4619 216.071 114.53 229.225C122.76 235.561 134.844 242.088 142.382 245.151C155.225 250.365 163.317 250.926 174.953 251.051C191.655 251.231 207.745 244.77 219.685 233.089C231.625 221.407 238.436 205.463 238.623 188.76C238.794 172.788 232.868 158.585 223.403 147.22C219.483 142.514 213.233 135.3 208.283 131.644C198.66 124.496 189.73 118.8 180.048 114.491Z" fill="white"/>
<path opacity="0.5" d="M177.299 224.675C183.486 223.215 187.318 217.016 185.858 210.829C184.398 204.642 178.198 200.81 172.011 202.27C165.824 203.73 161.992 209.93 163.453 216.117C164.913 222.304 171.112 226.135 177.299 224.675Z" fill="#3DC5A1"/>
<path opacity="0.5" d="M230.582 184.615C230.578 182.453 231.183 180.332 232.328 178.497C233.474 176.663 235.112 175.187 237.057 174.24C238.154 179.001 238.679 183.875 238.621 188.76C238.595 190.999 238.452 193.235 238.192 195.459C235.961 194.656 234.033 193.183 232.671 191.242C231.308 189.301 230.579 186.987 230.582 184.615Z" fill="#3DC5A1"/>
<path opacity="0.3" d="M124.007 216.54C99.9039 196.622 85.7799 152.956 105.527 125.883C99.3061 131.69 94.3302 138.7 90.9015 146.489C87.4729 154.278 85.6631 162.682 85.5819 171.192C85.3311 194.338 97.4619 216.072 114.53 229.226C122.76 235.562 134.844 242.089 142.382 245.151C155.225 250.365 163.317 250.926 174.953 251.052C183.7 251.155 192.373 249.43 200.416 245.989C208.459 242.548 215.695 237.465 221.661 231.067C221.859 230.843 222.063 230.625 222.261 230.407C186.641 255.467 148.11 236.453 124.007 216.54Z" fill="#3DC5A1"/>
<path d="M190.523 137.221L200.192 142.943C209.947 140.237 221.563 142.072 228.863 154.711C228.863 154.711 231.721 125.321 228.058 117.15C228.058 117.15 226.078 115.975 225.246 115.487C224.025 114.754 222.045 114.517 219.669 114.906C207.631 116.873 196.681 126.72 190.523 137.221Z" fill="#3DC5A1"/>
<path d="M200.191 142.943C212.824 139.848 222.381 143.894 228.862 154.711C228.862 154.711 240.366 112.55 222.367 116.504C210.177 119.183 200.191 142.943 200.191 142.943Z" fill="#3DC5A1"/>
<path opacity="0.2" d="M200.191 142.943C212.824 139.848 222.381 143.894 228.862 154.711C228.862 154.711 240.366 112.55 222.367 116.504C210.177 119.183 200.191 142.943 200.191 142.943Z" fill="white"/>
<path opacity="0.5" d="M218.462 138.931C206.806 134.509 200.18 142.943 200.18 142.943C212.812 139.848 222.369 143.894 228.85 154.711C228.863 154.711 230.137 143.353 218.462 138.931Z" fill="#3DC5A1"/>
<path d="M180.615 153.966C169.85 163.549 160.155 175.746 152.941 194.101L143.701 188.662C140.242 185.078 131.491 154.837 149.133 143.782C160.894 136.417 180.615 153.966 180.615 153.966Z" fill="#3DC5A1"/>
<path d="M180.617 153.965C167.899 165.139 158.942 178.689 152.943 194.1C152.943 194.1 133.737 160.024 151.531 145.26C161.919 136.62 180.617 153.965 180.617 153.965Z" fill="#3DC5A1"/>
<path opacity="0.2" d="M180.617 153.965C167.899 165.139 158.942 178.689 152.943 194.1C152.943 194.1 133.737 160.024 151.531 145.26C161.919 136.62 180.617 153.965 180.617 153.965Z" fill="white"/>
<path opacity="0.5" d="M180.614 153.965C180.614 153.965 169.909 153.846 160.543 166.386C151.792 178.108 152.94 194.106 152.94 194.106C158.94 178.688 167.896 165.139 180.614 153.965Z" fill="#3DC5A1"/>
<path d="M226.934 186.121C223.185 183.91 217.839 184.227 211.873 187.586C200.382 194.054 190.964 209.366 190.825 221.761C190.766 227.701 192.805 231.872 196.257 233.925C197.907 234.921 204.382 238.763 206.052 239.726C209.794 241.904 215.113 241.574 221.053 238.235C232.537 231.767 241.956 216.455 242.094 204.06C242.154 198.12 240.114 193.955 236.676 191.896C235.019 190.886 228.571 187.078 226.934 186.121Z" fill="#3DC5A1"/>
<path opacity="0.2" d="M236.677 191.882C235.02 190.886 228.572 187.077 226.935 186.107C223.186 183.896 217.84 184.213 211.874 187.572C207.082 190.265 202.634 194.502 199.109 199.419L236.789 221.721C240.036 215.966 242.029 209.709 242.069 204.046C242.155 198.126 240.095 193.941 236.677 191.882Z" fill="white"/>
<path opacity="0.1" d="M193.07 210.633L229.166 231.899C232.141 228.854 234.704 225.433 236.789 221.721L199.109 199.42C196.604 202.871 194.573 206.643 193.07 210.633Z" fill="white"/>
<path d="M221.534 193.295C233.025 186.827 242.225 191.639 242.093 204.047C241.961 216.455 232.537 231.767 221.053 238.221C209.569 244.676 200.362 239.871 200.494 227.463C200.626 215.055 210.05 199.763 221.534 193.295Z" fill="#3DC5A1"/>
<path d="M221.534 193.295C233.025 186.827 242.225 191.639 242.093 204.047C241.961 216.455 232.537 231.767 221.053 238.221C209.569 244.676 200.362 239.871 200.494 227.463C200.626 215.055 210.05 199.763 221.534 193.295Z" fill="#3DC5A1"/>
<path opacity="0.3" d="M221.534 193.295C233.025 186.827 242.225 191.639 242.093 204.047C241.961 216.455 232.537 231.767 221.053 238.221C209.569 244.676 200.362 239.871 200.494 227.463C200.626 215.055 210.05 199.763 221.534 193.295Z" fill="white"/>
<path d="M213.881 227.978C212.475 228.77 211.359 227.899 211.379 226.044L211.478 216.58C211.478 214.725 212.653 212.58 214.052 211.788C215.451 211.003 216.573 211.867 216.554 213.722L216.481 223.186C216.428 225.061 215.28 227.192 213.881 227.978Z" fill="#3DC5A1"/>
<path d="M211.475 216.58L211.376 226.045C211.367 226.418 211.418 226.79 211.528 227.147C211.722 227.093 211.908 227.016 212.082 226.916C213.481 226.131 214.636 223.986 214.656 222.124L214.755 212.66C214.765 212.289 214.713 211.919 214.603 211.564C214.41 211.616 214.224 211.691 214.049 211.789C212.65 212.581 211.495 214.726 211.475 216.58Z" fill="#3DC5A1"/>
<path opacity="0.15" d="M211.475 216.58L211.376 226.045C211.367 226.418 211.418 226.79 211.528 227.147C211.722 227.093 211.908 227.016 212.082 226.916C213.481 226.131 214.636 223.986 214.656 222.124L214.755 212.66C214.765 212.289 214.713 211.919 214.603 211.564C214.41 211.616 214.224 211.691 214.049 211.789C212.65 212.581 211.495 214.726 211.475 216.58Z" fill="black"/>
<path d="M228.537 219.722C227.131 220.507 226.016 219.643 226.035 217.788L226.134 208.324C226.134 206.469 227.309 204.324 228.708 203.532C230.108 202.747 231.23 203.611 231.21 205.466L231.104 214.93C231.084 216.792 229.936 218.93 228.537 219.722Z" fill="#3DC5A1"/>
<path d="M226.135 208.324L226.036 217.801C226.027 218.175 226.078 218.547 226.188 218.904C226.381 218.847 226.567 218.77 226.742 218.673C228.142 217.887 229.297 215.742 229.316 213.881L229.415 204.417C229.424 204.043 229.373 203.671 229.264 203.314C229.071 203.371 228.885 203.449 228.709 203.545C227.31 204.324 226.155 206.469 226.135 208.324Z" fill="#3DC5A1"/>
<path opacity="0.15" d="M226.135 208.324L226.036 217.801C226.027 218.175 226.078 218.547 226.188 218.904C226.381 218.847 226.567 218.77 226.742 218.673C228.142 217.887 229.297 215.742 229.316 213.881L229.415 204.417C229.424 204.043 229.373 203.671 229.264 203.314C229.071 203.371 228.885 203.449 228.709 203.545C227.31 204.324 226.155 206.469 226.135 208.324Z" fill="black"/>
<path opacity="0.3" d="M204.546 236.406C199.398 229.146 202.922 214.138 208.816 205.076C203.827 211.967 200.573 220.21 200.494 227.463C200.362 239.871 209.562 244.683 221.053 238.221C224.988 235.917 228.492 232.944 231.408 229.437C224.122 237.984 210.044 244.148 204.546 236.406Z" fill="white"/>
<path d="M191.209 189.653C191.21 190.598 190.931 191.523 190.407 192.31C189.882 193.097 189.136 193.71 188.262 194.073C187.389 194.435 186.428 194.53 185.5 194.346C184.573 194.162 183.721 193.707 183.052 193.038C182.383 192.369 181.928 191.517 181.744 190.59C181.56 189.662 181.655 188.701 182.017 187.828C182.38 186.954 182.993 186.208 183.78 185.683C184.567 185.159 185.492 184.88 186.437 184.881C187.702 184.883 188.915 185.386 189.81 186.28C190.704 187.175 191.207 188.388 191.209 189.653Z" fill="#263238"/>
<path d="M227.041 173.112C227.042 174.057 226.763 174.982 226.239 175.768C225.715 176.555 224.969 177.168 224.096 177.531C223.223 177.894 222.262 177.989 221.335 177.806C220.407 177.622 219.555 177.167 218.886 176.499C218.217 175.831 217.762 174.98 217.577 174.053C217.392 173.126 217.486 172.165 217.847 171.291C218.209 170.418 218.821 169.671 219.607 169.146C220.393 168.62 221.317 168.34 222.263 168.34C223.529 168.34 224.743 168.842 225.639 169.737C226.535 170.632 227.039 171.845 227.041 173.112Z" fill="#263238"/>
<path d="M177.328 141.755L137.82 118.332L144.823 114.385L184.331 137.815L177.328 141.755Z" fill="#3DC5A1"/>
<path opacity="0.2" d="M177.328 141.755L137.82 118.332L144.823 114.385L184.331 137.815L177.328 141.755Z" fill="black"/>
<path d="M144.824 114.385L144.777 118.404L180.827 139.782L184.331 137.815L144.824 114.385Z" fill="#3DC5A1"/>
<path opacity="0.2" d="M144.823 114.385L144.777 118.404L141.279 120.378L137.82 118.332L144.823 114.385Z" fill="black"/>
<path d="M248.469 223.197C248.469 223.197 249.386 236.853 249.531 242.397C249.531 242.806 253.366 244.548 256.184 244.06C259.002 243.571 259.748 242.588 259.748 242.291C259.748 241.268 260.771 239.895 260.877 238.879C261.537 232.417 261.946 227.903 262.441 223.309L248.469 223.197Z" fill="#FFBDA7"/>
<path d="M233.687 256.078C233.495 256.078 233.244 258.137 234.307 258.988C235.528 259.972 239.092 261.569 243.738 260.902C248.385 260.236 249.678 259.312 251.5 257.767C253.322 256.223 255.011 254.606 257.11 254.118C259.057 253.662 262.02 252.85 262.634 252.256C263.248 251.662 263.109 249.049 263.109 249.049L233.687 256.078Z" fill="#263238"/>
<path d="M261.082 237.777C261.263 237.779 261.44 237.838 261.585 237.948C261.73 238.057 261.836 238.21 261.887 238.385C262.045 239.104 262.243 241.19 262.547 242.345C263.037 244.845 263.192 247.4 263.009 249.941C262.784 251.261 258.752 252.185 256.732 252.971C254.659 253.833 252.751 255.05 251.096 256.568C248.664 258.525 245.668 259.65 242.549 259.775C238.958 259.808 234.886 258.746 233.929 257.135C232.735 255.155 232.53 253.235 237.803 250.746C238.807 250.278 241.876 248.456 243.083 247.697C244.39 246.888 245.612 245.95 246.733 244.899C247.196 244.459 247.637 243.997 248.053 243.513C248.381 243.072 248.621 242.572 248.759 242.041C249.056 241.084 248.905 240.061 249.05 239.064C249.054 238.972 249.084 238.883 249.136 238.807C249.2 238.738 249.282 238.687 249.373 238.662C250.221 238.427 251.109 238.368 251.98 238.49C252.879 238.554 253.766 238.732 254.62 239.018C255.095 239.122 255.524 239.376 255.841 239.744C256.015 240.035 256.104 240.369 256.099 240.708C256.093 241.043 256.111 241.378 256.151 241.711C256.162 241.832 256.213 241.946 256.297 242.034C256.481 242.213 256.765 242.034 256.917 241.922C257.43 241.396 257.898 240.829 258.316 240.226C258.56 239.916 259.689 239.711 259.999 239.46C260.313 239.284 260.615 239.088 260.903 238.873C261.247 238.589 261.075 238.193 261.082 237.777Z" fill="#37474F"/>
<path d="M251.121 256.587C251.897 255.915 252.71 255.287 253.556 254.706C253.556 254.706 247.926 256.983 245.359 255.366C243.702 254.31 244.448 252.984 244.481 252.568C244.514 252.152 240.449 250.416 238.865 250.258C238.429 250.502 238.059 250.7 237.828 250.806C232.548 253.294 232.76 255.214 233.954 257.194C234.911 258.792 237.868 260.006 242.534 259.927C245.677 259.746 248.682 258.577 251.121 256.587Z" fill="#455A64"/>
<path d="M244.897 251.307C241.597 252.627 243.036 253.228 243.967 253.34C244.897 253.452 249.517 250.76 252.863 248.06C256.355 245.275 259.384 242.345 260.678 241.322C261.16 240.939 261.681 240.477 262.143 240.035C262.044 239.328 261.958 238.715 261.886 238.352C261.747 237.751 261.008 237.586 261.008 237.586L260.876 238.847C260.616 239.084 260.307 239.262 259.972 239.368C259.372 239.533 258.816 239.825 258.341 240.226C257.923 240.829 257.455 241.396 256.942 241.922C254.098 245.572 248.158 249.968 244.897 251.307Z" fill="#263238"/>
<path d="M244.197 252.864C244.258 252.863 244.317 252.845 244.368 252.812C244.418 252.778 244.459 252.732 244.484 252.677C244.51 252.622 244.519 252.56 244.512 252.5C244.504 252.44 244.48 252.383 244.441 252.336C243.632 251.561 242.67 250.963 241.616 250.581C240.563 250.199 239.441 250.042 238.323 250.119C238.28 250.121 238.237 250.132 238.198 250.152C238.159 250.171 238.125 250.198 238.097 250.232C238.069 250.265 238.048 250.304 238.036 250.346C238.024 250.388 238.02 250.431 238.026 250.475C238.031 250.518 238.046 250.559 238.068 250.597C238.09 250.634 238.12 250.667 238.155 250.692C238.19 250.717 238.231 250.735 238.273 250.744C238.316 250.754 238.36 250.754 238.402 250.746C239.411 250.683 240.422 250.827 241.374 251.167C242.326 251.508 243.199 252.038 243.94 252.726C243.97 252.766 244.008 252.8 244.053 252.824C244.097 252.848 244.147 252.861 244.197 252.864Z" fill="#F0F0F0"/>
<path d="M247.049 251.234C247.126 251.234 247.2 251.208 247.261 251.161C247.293 251.135 247.321 251.102 247.341 251.066C247.361 251.029 247.373 250.988 247.378 250.946C247.382 250.905 247.378 250.863 247.366 250.822C247.354 250.782 247.334 250.745 247.307 250.712C246.516 249.919 245.568 249.299 244.523 248.893C243.479 248.487 242.361 248.305 241.241 248.356C241.199 248.36 241.158 248.371 241.12 248.391C241.083 248.41 241.049 248.437 241.022 248.47C240.995 248.502 240.975 248.54 240.963 248.581C240.95 248.621 240.946 248.664 240.951 248.706C240.963 248.791 241.007 248.869 241.075 248.922C241.143 248.975 241.228 248.999 241.314 248.99C242.325 248.951 243.333 249.12 244.276 249.485C245.219 249.851 246.078 250.405 246.799 251.115C246.864 251.185 246.954 251.228 247.049 251.234Z" fill="#F0F0F0"/>
<path d="M249.692 249.386C249.752 249.385 249.812 249.367 249.862 249.333C249.913 249.3 249.954 249.253 249.979 249.198C250.005 249.143 250.014 249.082 250.006 249.022C249.999 248.962 249.974 248.905 249.936 248.858C249.127 248.082 248.165 247.484 247.111 247.102C246.058 246.72 244.936 246.563 243.818 246.64C243.775 246.644 243.734 246.657 243.697 246.677C243.66 246.698 243.627 246.725 243.6 246.758C243.574 246.792 243.554 246.83 243.543 246.871C243.531 246.912 243.528 246.955 243.534 246.997C243.54 247.039 243.554 247.081 243.575 247.118C243.597 247.155 243.626 247.187 243.66 247.213C243.695 247.239 243.734 247.258 243.776 247.268C243.818 247.278 243.861 247.281 243.904 247.274C244.912 247.21 245.922 247.353 246.873 247.693C247.824 248.034 248.696 248.565 249.434 249.254C249.466 249.293 249.505 249.325 249.549 249.347C249.593 249.37 249.642 249.383 249.692 249.386Z" fill="#F0F0F0"/>
<path d="M252.022 247.716C252.095 247.718 252.167 247.695 252.226 247.65C252.261 247.626 252.29 247.594 252.312 247.558C252.333 247.521 252.348 247.481 252.353 247.439C252.359 247.397 252.356 247.354 252.344 247.313C252.332 247.272 252.313 247.234 252.286 247.202C251.508 246.395 250.572 245.759 249.536 245.334C248.499 244.909 247.386 244.704 246.266 244.733C246.182 244.74 246.103 244.78 246.048 244.844C245.992 244.908 245.964 244.992 245.969 245.076C245.979 245.162 246.022 245.24 246.089 245.294C246.155 245.348 246.24 245.374 246.326 245.367C247.337 245.349 248.342 245.538 249.278 245.921C250.214 246.305 251.062 246.875 251.771 247.598C251.801 247.635 251.839 247.665 251.883 247.685C251.926 247.706 251.974 247.716 252.022 247.716Z" fill="#F0F0F0"/>
<path d="M254.521 245.757C254.595 245.758 254.667 245.735 254.725 245.691C254.76 245.667 254.789 245.636 254.81 245.6C254.832 245.564 254.846 245.524 254.852 245.483C254.858 245.441 254.854 245.399 254.843 245.359C254.831 245.318 254.812 245.281 254.785 245.249C253.531 243.645 250.64 242.549 248.185 242.76C248.143 242.763 248.101 242.774 248.063 242.793C248.025 242.811 247.992 242.837 247.964 242.869C247.936 242.901 247.915 242.939 247.902 242.979C247.889 243.019 247.884 243.061 247.888 243.104C247.899 243.188 247.943 243.265 248.009 243.319C248.075 243.373 248.159 243.4 248.244 243.394C250.442 243.203 253.135 244.212 254.25 245.631C254.283 245.672 254.324 245.704 254.371 245.726C254.418 245.747 254.469 245.758 254.521 245.757Z" fill="#F0F0F0"/>
<path d="M288.266 225.652L275.066 225.745L277.858 242.548L278.518 246.838C278.98 249.954 286.346 250.798 288.128 245.961L288.068 241.75C288.115 237.876 288.167 231.434 288.266 225.652Z" fill="#FFBDA7"/>
<path d="M277.562 263.582C277.596 266.77 277.985 268.901 279.028 270.842C280.071 272.782 282.163 273.482 284.347 273.007C286.532 272.531 289.357 271.238 290.109 268.525C290.862 265.813 290.829 263.905 290.479 260.955L277.562 263.582Z" fill="#263238"/>
<path d="M288.063 241.75C288.802 242.027 288.782 246.37 289.086 250.693C289.416 255.313 290.155 256.719 290.465 260.501C290.815 264.824 290.465 266.243 288.815 268.764C287.165 271.285 281.74 273.575 279.298 269.734C277.318 266.599 277.43 263.721 277.833 259.445C278.181 256.051 278.336 252.639 278.295 249.228C278.295 246.007 277.067 242.872 277.852 242.549C277.707 242.608 277.918 244.799 277.965 244.991C278.035 245.412 278.17 245.819 278.367 246.198C278.757 246.819 279.027 245.849 279.027 245.479C279.027 244.819 278.869 244.331 279.39 243.822C279.793 243.5 280.258 243.264 280.756 243.129C281.287 242.946 281.836 242.818 282.393 242.747C283.536 242.631 284.688 242.631 285.832 242.747C286.084 242.742 286.334 242.794 286.563 242.901C286.792 243.007 286.993 243.164 287.152 243.36C287.209 243.467 287.247 243.584 287.264 243.704C287.33 244.133 287.264 244.562 287.323 244.984C287.323 245.103 287.376 245.413 287.482 245.486C287.587 245.558 287.779 245.545 287.792 245.486C287.805 245.426 288.109 242.502 288.063 241.75Z" fill="#37474F"/>
<path d="M290.353 259.021C290.412 259.681 290.65 263.536 289.502 264.216C288.353 264.895 287.746 261.701 287.746 261.701C287.746 261.701 284.954 260.698 280.743 262.308C280.922 262.968 280.176 265.146 279.067 264.625C277.958 264.103 277.8 259.873 277.8 259.813C277.43 263.912 277.364 266.691 279.298 269.713C281.74 273.555 287.218 271.271 288.815 268.743C290.412 266.215 290.795 264.783 290.465 260.48C290.432 260.071 290.399 259.411 290.353 259.021Z" fill="#455A64"/>
<path d="M287.408 261.966C287.349 263.517 288.728 263.048 289.078 260.877C289.553 257.623 288.893 254.462 289.078 250.693C288.774 246.39 288.939 241.862 288.055 241.75C288.055 242.496 287.758 245.433 287.758 245.433C287.877 248.647 288.537 252.422 288.246 255.716C288.002 258.613 287.468 260.415 287.408 261.966Z" fill="#263238"/>
<path d="M281.217 262.289C280.999 260.752 280.557 260.309 280.359 257.386C280.161 254.462 278.848 249.228 278.379 246.073C278.26 245.096 277.844 242.582 277.838 242.549C277.27 242.793 277.409 244.615 277.752 246.568C278.095 248.522 278.326 249.723 278.518 251.597C279.105 255.326 279.026 259.253 279.422 261.412C279.818 263.57 281.435 263.827 281.217 262.289Z" fill="#263238"/>
<path d="M280.862 262.341C280.904 262.351 280.946 262.351 280.988 262.341C283.172 261.445 285.596 261.312 287.865 261.965C287.952 261.991 288.047 261.982 288.127 261.938C288.208 261.895 288.268 261.822 288.294 261.734C288.32 261.647 288.311 261.552 288.267 261.472C288.224 261.391 288.15 261.331 288.063 261.305C285.638 260.593 283.042 260.737 280.71 261.714C280.671 261.733 280.635 261.759 280.606 261.791C280.576 261.823 280.554 261.861 280.539 261.902C280.524 261.943 280.518 261.987 280.52 262.031C280.522 262.074 280.533 262.117 280.552 262.157C280.579 262.215 280.623 262.264 280.678 262.297C280.734 262.331 280.798 262.346 280.862 262.341Z" fill="#F0F0F0"/>
<path d="M280.118 259.219C280.155 259.226 280.193 259.226 280.23 259.219C280.269 259.219 284.302 257.583 288.255 258.698C288.299 258.71 288.344 258.714 288.389 258.708C288.433 258.703 288.477 258.689 288.516 258.667C288.555 258.645 288.589 258.615 288.617 258.58C288.645 258.544 288.666 258.504 288.678 258.46C288.69 258.417 288.693 258.372 288.688 258.327C288.683 258.282 288.668 258.239 288.646 258.2C288.624 258.161 288.595 258.126 288.559 258.098C288.524 258.071 288.483 258.05 288.44 258.038C284.256 256.857 280.137 258.52 279.972 258.586C279.885 258.605 279.809 258.658 279.76 258.734C279.712 258.809 279.696 258.901 279.715 258.988C279.734 259.076 279.787 259.152 279.863 259.2C279.938 259.249 280.03 259.265 280.118 259.246V259.219Z" fill="#F0F0F0"/>
<path d="M288.835 256.178C288.899 256.173 288.96 256.151 289.011 256.114C289.062 256.077 289.102 256.026 289.126 255.966C289.156 255.885 289.154 255.795 289.12 255.715C289.085 255.635 289.021 255.571 288.941 255.537C285.02 254 279.701 255.61 279.523 255.689C279.483 255.707 279.448 255.733 279.418 255.764C279.389 255.796 279.366 255.833 279.352 255.874C279.337 255.914 279.33 255.957 279.332 256.001C279.335 256.044 279.345 256.086 279.364 256.125C279.402 256.203 279.468 256.264 279.549 256.295C279.63 256.326 279.72 256.324 279.8 256.29C279.839 256.29 285.08 254.719 288.697 256.158L288.835 256.178Z" fill="#F0F0F0"/>
<path d="M288.322 253.365C288.409 253.38 288.499 253.36 288.572 253.308C288.644 253.257 288.693 253.179 288.708 253.091C288.723 253.004 288.702 252.914 288.651 252.842C288.6 252.769 288.521 252.72 288.434 252.705C284.131 250.923 279.517 253.108 279.352 253.194C279.314 253.214 279.28 253.243 279.253 253.276C279.226 253.31 279.205 253.349 279.193 253.391C279.181 253.432 279.177 253.476 279.182 253.519C279.186 253.563 279.199 253.604 279.22 253.643C279.263 253.718 279.334 253.775 279.418 253.799C279.502 253.824 279.592 253.815 279.669 253.775C279.709 253.775 284.177 251.656 288.183 253.313C288.225 253.34 288.272 253.358 288.322 253.365Z" fill="#F0F0F0"/>
<path d="M288.216 249.96C288.259 249.968 288.303 249.967 288.346 249.958C288.389 249.949 288.43 249.931 288.466 249.906C288.503 249.881 288.533 249.849 288.557 249.811C288.581 249.774 288.597 249.733 288.605 249.69C288.613 249.646 288.612 249.602 288.603 249.559C288.593 249.516 288.575 249.475 288.55 249.439C288.525 249.403 288.493 249.372 288.456 249.348C288.419 249.324 288.378 249.308 288.334 249.3C284.302 247.565 279.365 249.782 279.187 249.875C279.11 249.915 279.053 249.984 279.027 250.067C279.001 250.15 279.009 250.24 279.048 250.317C279.067 250.356 279.094 250.391 279.126 250.419C279.159 250.448 279.197 250.47 279.238 250.483C279.28 250.497 279.323 250.502 279.367 250.498C279.41 250.495 279.452 250.482 279.49 250.462C279.53 250.462 284.328 248.291 288.07 249.901C288.11 249.937 288.162 249.958 288.216 249.96Z" fill="#EBEBEB"/>
<path d="M266.908 182.818L264.928 196.903C264.928 196.903 265.324 205.39 264.717 210.954C263.925 218.214 262.407 227.118 261.608 233.282C255.252 237.037 248.85 233.421 248.85 233.421C248.85 233.421 246.923 205.404 246.718 196.005C246.454 183.709 245.722 156.253 246.105 143.865H286.457C286.457 143.865 287.011 154.26 287.163 164.259C287.368 177.241 288.331 192.336 288.331 192.336C291.381 204.79 289.453 217.112 288.496 235.731C282.695 238.767 276.418 236.146 276.418 236.146C276.418 236.146 273.475 219.079 271.858 210.09C270.069 200.19 268.353 191.755 266.875 182.851" fill="#521282"/>
<path d="M251.5 163.223L250.8 178.482C250.8 180.911 250.397 186.25 250.417 188.685C250.437 191.121 250.338 194.48 250.477 198.711C250.615 202.941 250.958 215.033 250.899 219.917C250.041 214.498 249.645 202.374 249.48 196.018C249.315 189.662 249.652 185.504 250.14 178.422C250.628 171.341 251.011 168.074 251.5 163.223Z" fill="#37474F"/>
<path d="M273.062 162.965C274.475 172.621 276.547 189.84 277.26 195.364C277.973 200.888 280.824 218.761 281.359 224.332C280.388 218.821 276.91 201.073 276.145 195.509C275.379 189.946 273.564 173.538 273.062 162.965Z" fill="#37474F"/>
<path d="M263.341 162.503L266.911 182.818L264.931 196.902L264.674 180.772L261.13 164.225C261.13 164.225 254.47 162.245 252.734 155.48C256.166 160.952 263.341 162.503 263.341 162.503Z" fill="#37474F"/>
<path d="M189.168 91.4745L188.963 91.4217C188.549 91.29 188.101 91.3207 187.709 91.5075C186.904 91.9431 186.792 93.0783 187.049 93.9429C187.126 94.1365 187.168 94.342 187.174 94.5501C187.145 94.7765 187.088 94.9983 187.003 95.2101C186.732 96.1209 187.293 97.0515 187.801 97.8501C187.91 97.9938 187.974 98.1657 187.986 98.3451C187.978 98.4509 187.955 98.5552 187.92 98.6553C187.887 98.998 187.929 99.3436 188.043 99.6684C188.157 99.9932 188.341 100.289 188.58 100.536C189.063 101.176 189.581 101.789 190.131 102.371C190.586 102.862 191.09 103.304 191.636 103.691C192.219 104.074 192.838 104.399 193.484 104.661C195.207 105.414 196.982 106.054 198.764 106.641C200.421 107.196 202.176 107.579 203.767 108.272C207.549 109.922 221.178 116.7 223.824 117.769C226.471 118.838 228.576 117.941 234.206 116.581C241.466 114.832 251.254 111.413 251.254 111.413L251.854 110.687L252.613 95.7711C249.67 95.7711 245.532 98.2857 243.921 98.9193C235.018 102.411 226.953 105.519 226.953 105.519C221.29 104.14 215.389 103.071 209.872 101.21C208.383 100.805 207.004 100.07 205.839 99.0579C204.651 97.9029 204.242 96.2859 203.028 95.0979C202.156 94.2597 201.094 93.6393 200.223 92.8077C199.736 92.3247 199.295 91.799 198.903 91.2369C198.639 90.8739 198.533 90.3327 198.19 90.0357C197.847 89.7387 197.206 89.9433 196.929 90.3987C196.49 91.274 196.417 92.2875 196.725 93.2169C196.975 94.2069 197.602 94.9791 197.998 95.9097C198.038 96.0219 198.078 96.1605 197.998 96.2463C197.952 96.2893 197.89 96.3128 197.827 96.3123C197.101 96.3457 196.391 96.0947 195.847 95.6127C194.428 94.5369 193.438 92.9727 192.091 91.8243C191.699 91.416 191.225 91.0964 190.699 90.8871C190.531 90.8283 190.351 90.8156 190.177 90.8505C190.002 90.8853 189.841 90.9663 189.709 91.0851C189.583 91.2171 189.498 91.3953 189.326 91.4415C189.276 91.4633 189.222 91.4746 189.168 91.4745Z" fill="#FFBDA7"/>
<path d="M252.975 95.1309C249.372 95.7051 247.537 96.5895 242.237 98.8797C234.786 102.107 232.08 103.242 232.08 103.242C232.08 103.242 230.872 105.816 231.42 110.238C231.968 114.66 234.509 116.779 234.509 116.779L252.117 111.717L252.975 95.1309Z" fill="#86D7C2"/>
<path d="M273.398 94.0104C278.837 96.129 281.602 97.2114 284.79 98.5446C284.79 98.5446 291.826 100.742 288.816 113.065C288.038 116.765 287.509 120.513 287.232 124.285C286.802 128.538 286.624 132.814 286.697 137.089C286.79 142.217 286.77 145.847 286.876 148.771C286.876 148.771 279.14 153.582 262.621 152.018C249.652 150.79 245.969 146.203 245.969 146.203V118.246C245.969 102.458 249.454 97.9374 252.978 95.1456C253.44 94.8684 262.541 93.8652 262.541 93.8652L273.398 94.0104Z" fill="#86D7C2"/>
<path d="M261.28 60.0923C268.362 58.3103 276.137 60.4223 278.077 67.0817C280.915 67.3061 281.72 69.7943 281.945 72.4871C282.717 81.5555 274.83 85.7597 273.365 90.0827L252.905 73.0547C250.667 68.3423 252.476 62.3099 261.28 60.0923Z" fill="#37474F"/>
<path d="M269.201 70.4022C269.334 71.0801 269.533 71.7433 269.795 72.3822C270.198 73.6428 271.333 74.5074 271.709 75.801C272.013 76.824 271.709 78.2364 272.66 78.9096C274.198 79.9656 275.128 77.5896 276.184 76.9296C277.834 75.9066 279.966 76.3422 280.718 78.2496C281.768 80.8896 280.448 83.8794 278.738 84.9156C278.161 85.3146 277.459 85.494 276.761 85.4214C276.063 85.3488 275.413 85.0289 274.93 84.5196L274.594 94.5516C273.418 96.2967 271.788 97.6863 269.878 98.5694C267.969 99.4526 265.854 99.7956 263.763 99.561C259.235 99.0066 260.027 96.4392 261.717 94.743L261.783 92.103C260.587 92.0457 259.408 91.7961 258.292 91.3638C257.059 90.894 255.977 90.097 255.163 89.0586C254.349 88.0202 253.833 86.7795 253.672 85.47C253.012 81.8334 253.705 78.21 253.83 75.0684C253.922 72.8244 253.757 69.4518 256.325 68.508C257.087 68.2801 257.879 68.1732 258.674 68.1912C259.994 68.1384 261.255 68.475 262.529 68.2902C262.012 68.8173 261.418 69.2624 260.767 69.6102C262.24 69.858 263.747 69.8244 265.208 69.5112C266.611 69.2349 267.979 68.8055 269.287 68.2308C269.162 68.9476 269.133 69.6778 269.201 70.4022Z" fill="#FFBDA7"/>
<path d="M262.619 74.084L261.813 81.8588L257.629 79.958L262.619 74.084Z" fill="#F0997A"/>
<path d="M264.706 82.9883L260.871 84.4799C260.964 84.7336 261.106 84.9663 261.289 85.1645C261.472 85.3627 261.693 85.5224 261.939 85.6342C262.185 85.746 262.451 85.8077 262.72 85.8158C262.99 85.8238 263.259 85.7781 263.511 85.6811C264.024 85.479 264.437 85.0833 264.66 84.5795C264.884 84.0756 264.9 83.5041 264.706 82.9883Z" fill="#B16668"/>
<path d="M262.262 85.7463C262.674 85.8562 263.111 85.8331 263.509 85.6803C263.919 85.5206 264.267 85.2353 264.504 84.8654C264.741 84.4954 264.855 84.0598 264.829 83.6211C264.243 83.6927 263.689 83.931 263.234 84.3077C262.779 84.6844 262.442 85.1836 262.262 85.7463Z" fill="#F28F8F"/>
<path d="M265.176 73.562L268.007 74.4464C268.121 74.0674 268.082 73.6588 267.898 73.3083C267.715 72.9578 267.4 72.6934 267.024 72.572C266.837 72.5142 266.642 72.494 266.447 72.5126C266.253 72.5312 266.065 72.5882 265.893 72.6803C265.721 72.7724 265.569 72.8978 265.446 73.0492C265.323 73.2005 265.231 73.3748 265.176 73.562Z" fill="#263238"/>
<path d="M258.502 73.0221L255.591 73.5963C255.52 73.2063 255.604 72.8037 255.826 72.4753C256.048 72.1469 256.391 71.919 256.779 71.8407C256.97 71.8026 257.167 71.8031 257.358 71.8422C257.548 71.8813 257.729 71.9581 257.89 72.0682C258.05 72.1783 258.187 72.3194 258.292 72.4833C258.398 72.6471 258.469 72.8303 258.502 73.0221Z" fill="#263238"/>
<path d="M267.109 76.8632C267.086 77.1003 266.994 77.3253 266.843 77.5099C266.693 77.6945 266.491 77.8306 266.264 77.9009C266.036 77.9712 265.793 77.9726 265.564 77.905C265.336 77.8374 265.133 77.7038 264.98 77.521C264.827 77.3382 264.732 77.1143 264.706 76.8775C264.681 76.6407 264.725 76.4016 264.835 76.1902C264.945 75.9788 265.115 75.8046 265.323 75.6895C265.532 75.5744 265.77 75.5235 266.007 75.5432C266.167 75.5556 266.322 75.5998 266.465 75.6733C266.607 75.7467 266.734 75.8479 266.836 75.9709C266.939 76.0939 267.016 76.2362 267.063 76.3895C267.11 76.5427 267.126 76.7038 267.109 76.8632Z" fill="#263238"/>
<path d="M258.5 76.1366C258.477 76.3737 258.384 76.5987 258.234 76.7833C258.083 76.968 257.882 77.104 257.654 77.1743C257.427 77.2446 257.183 77.246 256.955 77.1785C256.727 77.1109 256.523 76.9773 256.371 76.7944C256.218 76.6116 256.123 76.3877 256.097 76.1509C256.071 75.9142 256.116 75.675 256.226 75.4637C256.336 75.2523 256.505 75.0781 256.714 74.963C256.922 74.8478 257.16 74.7969 257.398 74.8166C257.558 74.8281 257.714 74.8718 257.857 74.9449C258 75.0181 258.126 75.1193 258.229 75.2425C258.332 75.3657 258.409 75.5084 258.456 75.662C258.502 75.8156 258.517 75.9771 258.5 76.1366Z" fill="#263238"/>
<path d="M261.775 92.1691C263.785 92.2153 265.789 91.9458 267.715 91.3705C269.88 90.6775 271.24 89.9779 272.652 87.3379C272.482 88.7756 271.823 90.111 270.784 91.1197C267.999 93.5155 261.723 93.5881 261.723 93.5881L261.775 92.1691Z" fill="#F0997A"/>
<path d="M195.109 86.4587L202.369 82.2677L202.422 82.2347C205.94 80.2547 210.784 80.5517 216.13 83.6339C226.915 89.8445 235.62 104.939 235.62 117.373C235.62 123.544 233.469 127.894 229.977 129.913L229.924 129.946L222.664 134.137L221.424 130.877C219.533 130.388 217.72 129.637 216.038 128.646C205.28 122.435 196.561 107.328 196.561 94.9067C196.542 92.9696 196.793 91.0391 197.307 89.1713L195.109 86.4587Z" fill="#455A64"/>
<path d="M235.461 114.338C235.574 115.346 235.631 116.36 235.633 117.374C235.633 123.545 233.481 127.894 229.99 129.914L229.937 129.947L222.677 134.138L221.436 130.877C221.031 130.776 220.622 130.657 220.209 130.521L218.367 124.172L235.461 114.338Z" fill="#263238"/>
<path d="M223.422 134.772C231.064 130.38 231.093 116.089 223.486 102.852C215.879 89.6155 203.516 82.4457 195.873 86.838C188.231 91.2303 188.202 105.521 195.809 118.758C203.417 131.995 215.779 139.165 223.422 134.772Z" fill="#37474F"/>
<path d="M193.769 91.9439C196.501 87.5747 201.801 86.9015 207.946 90.1487C218.103 95.5145 226.32 109.751 225.891 121.228C225.879 123.88 225.181 126.483 223.865 128.785C221.126 133.154 215.826 133.827 209.688 130.587C199.531 125.214 191.314 110.985 191.743 99.5009C191.755 96.8492 192.453 94.2458 193.769 91.9439Z" fill="#263238"/>
<path d="M211.669 129.473C215.576 131.538 219.14 132.007 221.925 130.958C222.696 130.355 223.353 129.619 223.866 128.786C225.182 126.484 225.88 123.881 225.892 121.229C226.321 109.752 218.104 95.4893 207.947 90.1499C204.033 88.0841 200.469 87.6089 197.684 88.6649C196.919 89.2691 196.264 90.0016 195.75 90.8297C194.434 93.1296 193.736 95.7307 193.724 98.3801C193.288 109.871 201.512 124.08 211.669 129.473Z" fill="#FAFAFA"/>
<path opacity="0.3" d="M208.762 110.364L219.507 109.645C216.893 104.537 213.659 100.689 209.805 98.1016L208.762 110.364Z" fill="#3DC5A1"/>
<path d="M210.011 92.9746C210.133 93.0596 210.233 93.1719 210.304 93.3025C210.375 93.4331 210.415 93.5784 210.42 93.727V95.8324C210.42 96.1162 210.235 96.235 210.011 96.103C209.889 96.0194 209.788 95.9083 209.717 95.7788C209.646 95.6493 209.607 95.5048 209.602 95.3572V93.2452C209.602 92.968 209.78 92.8426 210.011 92.9746Z" fill="#3DC5A1"/>
<path d="M196.02 101.058C196.032 101.205 196.079 101.347 196.156 101.473C196.232 101.599 196.337 101.706 196.462 101.784L198.29 102.84C198.534 102.986 198.732 102.887 198.732 102.623C198.721 102.474 198.675 102.331 198.598 102.204C198.521 102.077 198.416 101.969 198.29 101.89L196.462 100.834C196.211 100.695 196.02 100.794 196.02 101.058Z" fill="#3DC5A1"/>
<path d="M224.517 118.14C224.506 117.992 224.461 117.848 224.384 117.721C224.307 117.594 224.201 117.486 224.075 117.408L222.247 116.352C222.003 116.213 221.805 116.312 221.805 116.57C221.818 116.718 221.866 116.861 221.944 116.988C222.021 117.115 222.127 117.223 222.253 117.302L224.075 118.358C224.319 118.464 224.517 118.365 224.517 118.14Z" fill="#3DC5A1"/>
<path d="M210.538 126.184C210.416 126.099 210.316 125.987 210.245 125.856C210.174 125.726 210.134 125.58 210.129 125.432V123.326C210.129 123.043 210.314 122.924 210.538 123.056C210.659 123.14 210.759 123.251 210.83 123.381C210.901 123.51 210.941 123.654 210.947 123.802V125.914C210.934 126.197 210.749 126.316 210.538 126.184Z" fill="#3DC5A1"/>
<path d="M209.18 111.125L219.509 109.646H208.375L209.18 111.125Z" fill="#3DC5A1"/>
<path d="M208.785 98.2998C208.785 98.2998 207.828 107.177 207.531 109.236C207.5 109.355 207.485 109.477 207.484 109.599C207.509 110.059 207.641 110.508 207.871 110.908C208.1 111.308 208.42 111.648 208.804 111.902C208.938 112 209.096 112.06 209.26 112.076C209.425 112.092 209.591 112.064 209.742 111.995L210.454 111.586C210.592 111.49 210.701 111.36 210.771 111.208C210.841 111.056 210.868 110.887 210.85 110.721C210.976 108.596 210.19 98.3856 210.19 98.3856L209.497 97.8906L208.785 98.2998Z" fill="#37474F"/>
<path d="M207.484 109.6C207.509 110.06 207.641 110.509 207.871 110.909C208.1 111.309 208.42 111.649 208.804 111.903C209.537 112.326 210.124 111.983 210.124 111.131C210.25 109.013 209.464 98.8024 209.464 98.8024L208.771 98.3008C208.771 98.3008 207.491 108.749 207.484 109.6Z" fill="#455A64"/>
<path d="M208.215 110.022C208.226 110.23 208.286 110.432 208.391 110.612C208.495 110.792 208.641 110.945 208.815 111.058C209.145 111.25 209.416 111.098 209.416 110.715C209.406 110.506 209.346 110.303 209.241 110.121C209.137 109.94 208.991 109.786 208.815 109.672C208.485 109.481 208.215 109.633 208.215 110.022Z" fill="#263238"/>
<path d="M198.056 109.2L198.035 109.377L200.171 109.634L200.193 109.457L198.056 109.2Z" fill="#37474F"/>
<path d="M205.189 118.313L204.344 120.291L204.508 120.361L205.353 118.383L205.189 118.313Z" fill="#37474F"/>
<path d="M215.963 98.8926L215.117 100.871L215.281 100.941L216.127 98.9626L215.963 98.8926Z" fill="#37474F"/>
<path d="M220.252 109.575L220.23 109.752L222.367 110.009L222.388 109.832L220.252 109.575Z" fill="#37474F"/>
<path d="M196.625 94.6275L196.492 94.7461L198.412 96.8989L198.545 96.7803L196.625 94.6275Z" fill="#37474F"/>
<path d="M204.306 90.2565L204.137 90.3125L205.043 93.0507L205.212 92.9947L204.306 90.2565Z" fill="#37474F"/>
<path d="M215.493 126.141L215.324 126.197L216.23 128.935L216.4 128.879L215.493 126.141Z" fill="#37474F"/>
<path d="M222.129 122.29L221.996 122.408L223.916 124.561L224.049 124.442L222.129 122.29Z" fill="#37474F"/>
<path d="M284.919 99.0391C291.816 102.907 291.638 110.556 283.698 119.499C275.277 128.996 273.633 131.194 271.495 133.075C267.693 136.428 266.32 135.504 259.338 134.752C258.882 134.705 258.427 134.646 257.971 134.593C253.668 134.045 249.391 133.141 245.167 132.316C238.468 130.996 233.908 129.841 231.307 128.647C228.707 127.452 225.895 125.934 223.988 123.683C223.222 122.824 222.524 121.906 221.902 120.938C221.117 119.618 220.219 118.146 220.378 116.555C220.406 116.144 220.553 115.75 220.8 115.42C220.841 115.374 220.872 115.32 220.893 115.262C220.899 115.218 220.899 115.174 220.893 115.13C220.798 114.763 220.745 114.387 220.734 114.008C220.737 113.739 220.835 113.479 221.011 113.275C221.051 113.236 221.513 112.886 221.526 112.932C221.465 112.682 221.436 112.424 221.44 112.166C221.428 112.053 221.44 111.939 221.475 111.831C221.51 111.723 221.568 111.623 221.645 111.539C221.795 111.437 221.966 111.37 222.146 111.345C222.326 111.32 222.509 111.337 222.681 111.394C223.195 111.518 223.647 111.823 223.955 112.252C224.165 112.14 224.4 112.082 224.638 112.082C224.876 112.082 225.111 112.14 225.321 112.252C225.923 112.522 226.446 112.943 226.839 113.473C227.583 114.424 228.373 115.345 229.209 116.239C229.652 116.761 230.208 117.177 230.834 117.455C231.46 117.734 232.14 117.869 232.825 117.849C233.289 117.867 233.749 117.748 234.145 117.506C234.432 117.27 234.658 116.969 234.805 116.628C235.288 115.698 235.492 114.648 235.393 113.605C237.076 115.084 237.439 117.618 238.904 119.308C239.658 120.137 240.599 120.775 241.65 121.169C244.078 122.132 246.877 122.126 249.464 122.172C252.216 122.218 262.4 122.047 263.713 121.948L274.306 108.239C274.306 108.239 280.854 99.7189 284.919 99.0391Z" fill="#FFBDA7"/>
<path d="M223.863 113.162C225.148 116.019 227.016 118.575 229.348 120.666C226.691 118.891 224.748 116.233 223.863 113.162Z" fill="#F0997A"/>
<path d="M221.055 115.684C222.305 118.423 224.055 120.905 226.216 123.003C223.723 121.212 221.905 118.634 221.055 115.684Z" fill="#F0997A"/>
<path d="M221.758 113.289C222.366 114.898 223.126 116.445 224.028 117.909C225.055 119.284 226.182 120.581 227.401 121.79C224.541 119.744 222.533 116.719 221.758 113.289Z" fill="#F0997A"/>
<path d="M235.383 113.605C236.775 114.609 237.363 116.344 238.161 117.79C238.915 119.27 240.138 120.459 241.64 121.169C237.449 120.087 237.647 116.351 235.383 113.605Z" fill="#F0997A"/>
<path d="M284.789 98.543C291.013 101.843 292.195 108.027 288.644 113.314C282.763 122.065 278.209 125.761 278.209 125.761C278.209 125.761 274.414 126.078 271.127 122.461C267.841 118.845 267.59 116.521 267.59 116.521C267.59 116.521 272.401 110.522 275.338 106.72C278.11 103.097 280.981 99.9092 284.789 98.543Z" fill="#86D7C2"/>
</svg>
