<svg width="15" height="15" viewBox="0 0 15 15" fill="none" xmlns="http://www.w3.org/2000/svg">
<g clip-path="url(#clip0_16898_13566)">
<path d="M4.17634 4.7486C4.17634 4.85714 4.08951 4.96568 3.95926 4.96568C3.82902 4.96568 3.74219 4.85714 3.74219 4.7486V4.53153C3.74219 4.42299 3.82902 4.31445 3.95926 4.31445C4.08951 4.31445 4.17634 4.42299 4.17634 4.53153V4.7486ZM6.36879 4.7486C6.36879 4.85714 6.26025 4.96568 6.15172 4.96568C6.02147 4.96568 5.93464 4.85714 5.93464 4.7486V4.53153C5.93464 4.42299 6.02147 4.31445 6.15172 4.31445C6.26025 4.31445 6.36879 4.42299 6.36879 4.53153V4.7486Z" fill="#797979"/>
<path d="M14.5334 7.89572C14.5334 8.37328 14.1427 8.76401 13.6651 8.76401H1.50892C1.03136 8.76401 0.640625 8.37328 0.640625 7.89572C0.640625 7.41815 1.03136 7.02742 1.50892 7.02742H2.46405V1.86104C2.46405 1.12299 3.28893 0.558594 3.98357 0.558594C4.61309 0.558594 5.13407 1.03616 5.24261 1.64397C5.807 1.7308 6.26286 2.18665 6.32798 2.75105C6.47993 2.83788 6.58847 3.01154 6.58847 3.2069V3.31544C6.58847 3.59764 6.37139 3.81471 6.0892 3.81471H4.02699C3.74479 3.81471 3.52772 3.57593 3.52772 3.31544V3.2069C3.52772 3.01154 3.63625 2.83788 3.80991 2.75105C3.87504 2.20836 4.28748 1.77421 4.83016 1.66567C4.74333 1.29665 4.41772 1.01445 4.00528 1.01445C3.52772 1.01445 2.91991 1.42689 2.91991 1.88275V7.04912H13.6651C14.1427 7.00571 14.5334 7.41815 14.5334 7.89572Z" fill="#797979"/>
<path d="M6.36811 5.6169V5.83398C6.36811 5.94251 6.25957 6.05105 6.15103 6.05105C6.02079 6.05105 5.93396 5.94251 5.93396 5.83398V5.6169C5.93396 5.50836 6.02079 5.39983 6.15103 5.39983C6.25957 5.39983 6.36811 5.48666 6.36811 5.6169ZM5.26103 4.7486C5.26103 4.85714 5.15249 4.96568 5.04395 4.96568C4.93541 4.96568 4.82688 4.85714 4.82688 4.7486V4.53153C4.82688 4.42299 4.93541 4.31445 5.04395 4.31445C5.15249 4.31445 5.26103 4.42299 5.26103 4.53153V4.7486ZM4.17565 5.6169V5.83398C4.17565 5.94251 4.08882 6.05105 3.95858 6.05105C3.82833 6.05105 3.7415 5.94251 3.7415 5.83398V5.6169C3.7415 5.50836 3.82833 5.39983 3.95858 5.39983C4.08882 5.39983 4.17565 5.48666 4.17565 5.6169ZM5.26103 5.6169V5.83398C5.26103 5.94251 5.15249 6.05105 5.04395 6.05105C4.93541 6.05105 4.82688 5.94251 4.82688 5.83398V5.6169C4.82688 5.50836 4.93541 5.39983 5.04395 5.39983C5.15249 5.39983 5.26103 5.48666 5.26103 5.6169ZM13.6184 9.19863V9.95839C13.6184 11.7167 12.2942 13.1711 10.5794 13.3665V13.5401C10.5794 14.0177 10.1886 14.4084 9.71106 14.4084C9.23349 14.4084 8.84276 14.0177 8.84276 13.5401V13.3882H6.30298V13.5401C6.30298 14.0177 5.91225 14.4084 5.43469 14.4084C4.95712 14.4084 4.56639 14.0177 4.56639 13.5401V13.3665C2.8515 13.1711 1.52734 11.7167 1.52734 9.95839V9.19863H13.6184V9.19863Z" fill="#797979"/>
</g>
<defs>
<clipPath id="clip0_16898_13566">
<rect width="14.3269" height="14.3269" fill="white" transform="translate(0.421875 0.320312)"/>
</clipPath>
</defs>
</svg>
