<svg width="19" height="19" viewBox="0 0 19 19" fill="none" xmlns="http://www.w3.org/2000/svg">
<g clip-path="url(#clip0_16898_13561)">
<path d="M2.08027 7.09796C2.08027 6.65417 2.44085 6.26584 2.91239 6.26584H5.21458C5.65838 6.26584 6.0467 6.65417 6.0467 7.09796V7.48629C6.07444 7.48629 6.46276 7.48629 6.46276 7.48629H6.87882V7.09796C6.87882 6.65417 7.26714 6.26584 7.71094 6.26584H10.0131C10.4847 6.26584 10.8453 6.65417 10.8453 7.09796V7.98556C11.0117 8.06877 11.1781 8.15198 11.3168 8.26293V4.46292C11.3168 4.32423 11.1781 4.18555 11.0394 4.18555H1.88611C1.74742 4.18555 1.60873 4.32423 1.60873 4.46292V8.26293C1.74742 8.15198 1.91384 8.06877 2.08027 7.98556V7.09796V7.09796ZM12.1766 10.2878H0.776615C0.499242 10.2878 0.277344 10.5097 0.277344 10.787V13.3389C0.277344 13.4775 0.41603 13.6162 0.554717 13.6162H12.3985C12.565 13.6162 12.6759 13.4775 12.6759 13.3389V10.787C12.6759 10.4819 12.454 10.2878 12.1766 10.2878ZM1.24815 14.5038C1.24815 14.6425 1.3591 14.7812 1.52552 14.7812H2.9956C3.16202 14.7812 3.27297 14.6425 3.27297 14.5038V14.1432H1.24815V14.5038ZM9.68029 14.5038C9.68029 14.6425 9.81898 14.7812 9.95766 14.7812H11.4277C11.5664 14.7812 11.7051 14.6425 11.7051 14.5038V14.1432H9.68029V14.5038Z" fill="#797979"/>
<path d="M10.3201 8.34519V7.09702C10.3201 6.95833 10.1814 6.81964 10.0427 6.81964H7.74053C7.60184 6.81964 7.46316 6.95833 7.46316 7.09702V8.06782C7.15805 8.06782 5.79892 8.06782 5.52155 8.06782V7.09702C5.52155 6.95833 5.4106 6.81964 5.24417 6.81964H2.94198C2.77555 6.81964 2.6646 6.95833 2.6646 7.09702V8.34519C1.97117 8.56709 1.44416 9.01089 1.25 9.70432H11.7347C11.5128 9.03863 11.0135 8.59483 10.3201 8.34519ZM13.9537 14.5029C13.9537 14.6416 14.0924 14.7802 14.2311 14.7802H17.7537C17.9201 14.7802 18.0311 14.6416 18.0311 14.5029V12.7277H13.9537V14.5029ZM17.7537 10.7583H14.2311C14.0924 10.7583 13.9537 10.897 13.9537 11.0357V12.1729H18.0311V11.0357C18.0311 10.8693 17.9201 10.7583 17.7537 10.7583ZM16.0617 11.7014H15.8953C15.7289 11.7014 15.6179 11.5905 15.6179 11.424C15.6179 11.2576 15.7289 11.1467 15.8953 11.1467H16.0617C16.2281 11.1467 16.3391 11.2576 16.3391 11.424C16.3391 11.5905 16.2281 11.7014 16.0617 11.7014ZM14.7026 8.48388H15.7011V9.70432H15.3683C15.2019 9.70432 15.0909 9.84301 15.0909 9.9817V10.1759H16.8661V9.9817C16.8661 9.84301 16.7274 9.70432 16.5887 9.70432H16.2559V8.48388H17.3931C17.4763 8.48388 17.5595 8.45614 17.615 8.40067C17.6705 8.34519 17.6982 8.26198 17.6705 8.17877L17.2822 5.98752C17.2544 5.84884 17.1435 5.76562 17.0048 5.76562H15.0909C14.9522 5.76562 14.8413 5.84884 14.8135 5.98752L14.4252 8.17877C14.4252 8.26198 14.4252 8.34519 14.4807 8.40067C14.5639 8.45614 14.6194 8.48388 14.7026 8.48388Z" fill="#797979"/>
</g>
<defs>
<clipPath id="clip0_16898_13561">
<rect width="18.3066" height="18.3066" fill="white" transform="translate(0 0.330078)"/>
</clipPath>
</defs>
</svg>
