<svg width="20" height="22" viewBox="0 0 20 22" fill="none" xmlns="http://www.w3.org/2000/svg">
<path fill-rule="evenodd" clip-rule="evenodd" d="M18.6677 9.4043H0.84375C0.42975 9.4043 0.09375 9.0683 0.09375 8.6543C0.09375 8.2403 0.42975 7.9043 0.84375 7.9043H18.6677C19.0817 7.9043 19.4177 8.2403 19.4177 8.6543C19.4177 9.0683 19.0817 9.4043 18.6677 9.4043Z" fill="#515151"/>
<path fill-rule="evenodd" clip-rule="evenodd" d="M14.1993 13.3105C13.7853 13.3105 13.4453 12.9745 13.4453 12.5605C13.4453 12.1465 13.7763 11.8105 14.1903 11.8105H14.1993C14.6133 11.8105 14.9493 12.1465 14.9493 12.5605C14.9493 12.9745 14.6133 13.3105 14.1993 13.3105Z" fill="#515151"/>
<path fill-rule="evenodd" clip-rule="evenodd" d="M9.76181 13.3105C9.34781 13.3105 9.00781 12.9745 9.00781 12.5605C9.00781 12.1465 9.33881 11.8105 9.75281 11.8105H9.76181C10.1758 11.8105 10.5118 12.1465 10.5118 12.5605C10.5118 12.9745 10.1758 13.3105 9.76181 13.3105Z" fill="#515151"/>
<path fill-rule="evenodd" clip-rule="evenodd" d="M5.3175 13.3105C4.9035 13.3105 4.5625 12.9745 4.5625 12.5605C4.5625 12.1465 4.8945 11.8105 5.3085 11.8105H5.3175C5.7315 11.8105 6.0675 12.1465 6.0675 12.5605C6.0675 12.9745 5.7315 13.3105 5.3175 13.3105Z" fill="#515151"/>
<path fill-rule="evenodd" clip-rule="evenodd" d="M14.1993 17.1973C13.7853 17.1973 13.4453 16.8613 13.4453 16.4473C13.4453 16.0333 13.7763 15.6973 14.1903 15.6973H14.1993C14.6133 15.6973 14.9493 16.0333 14.9493 16.4473C14.9493 16.8613 14.6133 17.1973 14.1993 17.1973Z" fill="#515151"/>
<path fill-rule="evenodd" clip-rule="evenodd" d="M9.76181 17.1973C9.34781 17.1973 9.00781 16.8613 9.00781 16.4473C9.00781 16.0333 9.33881 15.6973 9.75281 15.6973H9.76181C10.1758 15.6973 10.5118 16.0333 10.5118 16.4473C10.5118 16.8613 10.1758 17.1973 9.76181 17.1973Z" fill="#515151"/>
<path fill-rule="evenodd" clip-rule="evenodd" d="M5.3175 17.1973C4.9035 17.1973 4.5625 16.8613 4.5625 16.4473C4.5625 16.0333 4.8945 15.6973 5.3085 15.6973H5.3175C5.7315 15.6973 6.0675 16.0333 6.0675 16.4473C6.0675 16.8613 5.7315 17.1973 5.3175 17.1973Z" fill="#515151"/>
<path fill-rule="evenodd" clip-rule="evenodd" d="M13.793 5.291C13.379 5.291 13.043 4.955 13.043 4.541V1.25C13.043 0.836 13.379 0.5 13.793 0.5C14.207 0.5 14.543 0.836 14.543 1.25V4.541C14.543 4.955 14.207 5.291 13.793 5.291Z" fill="#515151"/>
<path fill-rule="evenodd" clip-rule="evenodd" d="M5.71484 5.291C5.30084 5.291 4.96484 4.955 4.96484 4.541V1.25C4.96484 0.836 5.30084 0.5 5.71484 0.5C6.12884 0.5 6.46484 0.836 6.46484 1.25V4.541C6.46484 4.955 6.12884 5.291 5.71484 5.291Z" fill="#515151"/>
<mask id="mask0_17006_20018" style="mask-type:luminance" maskUnits="userSpaceOnUse" x="0" y="2" width="20" height="20">
<path fill-rule="evenodd" clip-rule="evenodd" d="M0 2.07812H19.5V21.999H0V2.07812Z" fill="white"/>
</mask>
<g mask="url(#mask0_17006_20018)">
<path fill-rule="evenodd" clip-rule="evenodd" d="M5.521 3.57812C2.928 3.57812 1.5 4.96113 1.5 7.47213V16.5211C1.5 19.0871 2.928 20.4991 5.521 20.4991H13.979C16.572 20.4991 18 19.1131 18 16.5971V7.47213C18.004 6.23712 17.672 5.27713 17.013 4.61713C16.335 3.93712 15.29 3.57812 13.988 3.57812H5.521ZM13.979 21.9991H5.521C2.116 21.9991 0 19.9001 0 16.5211V7.47213C0 4.14412 2.116 2.07812 5.521 2.07812H13.988C15.697 2.07812 17.11 2.59012 18.075 3.55712C19.012 4.49813 19.505 5.85112 19.5 7.47412V16.5971C19.5 19.9291 17.384 21.9991 13.979 21.9991Z" fill="#515151"/>
</g>
</svg>
