<svg width="22" height="16" viewBox="0 0 22 16" fill="none" xmlns="http://www.w3.org/2000/svg">
<path d="M10.3555 14.6445C10.5273 14.8164 10.7422 14.9023 11 14.9023C11.2578 14.9023 11.4727 14.8164 11.6445 14.6445C11.8164 14.4727 11.9023 14.2578 11.9023 14C11.9023 13.7422 11.8164 13.5273 11.6445 13.3555C11.4727 13.1836 11.2578 13.0977 11 13.0977C10.7422 13.0977 10.5273 13.1836 10.3555 13.3555C10.1836 13.5273 10.0977 13.7422 10.0977 14C10.0977 14.2578 10.1836 14.4727 10.3555 14.6445ZM3.65234 2.09766V12.1523H18.3477V2.09766H3.65234ZM18.3477 14H22C22 14.487 21.8138 14.9167 21.4414 15.2891C21.069 15.6615 20.6393 15.8477 20.1523 15.8477H1.84766C1.36068 15.8477 0.93099 15.6615 0.558594 15.2891C0.186198 14.9167 0 14.487 0 14H3.65234C3.16536 14 2.73568 13.8138 2.36328 13.4414C2.01953 13.069 1.84766 12.6393 1.84766 12.1523V2.09766C1.84766 1.61068 2.01953 1.18099 2.36328 0.808594C2.73568 0.436198 3.16536 0.25 3.65234 0.25H18.3477C18.8346 0.25 19.25 0.436198 19.5938 0.808594C19.9661 1.18099 20.1523 1.61068 20.1523 2.09766V12.1523C20.1523 12.6393 19.9661 13.069 19.5938 13.4414C19.25 13.8138 18.8346 14 18.3477 14Z" fill="#515151"/>
</svg>
