<svg width="14" height="14" viewBox="0 0 14 14" fill="none" xmlns="http://www.w3.org/2000/svg">
<g clip-path="url(#clip0_12217_43233)">
<path d="M1.64019 9.0214L0.901303 12.2103C0.875814 12.3269 0.876688 12.4477 0.90386 12.5638C0.931033 12.68 0.983819 12.7887 1.05836 12.8819C1.1329 12.975 1.22732 13.0504 1.33471 13.1024C1.4421 13.1544 1.55976 13.1818 1.67908 13.1825C1.73468 13.1881 1.7907 13.1881 1.8463 13.1825L5.05464 12.4436L11.2146 6.30695L7.77686 2.87695L1.64019 9.0214Z" fill="#383A47"/>
<path d="M13.1509 3.23582L10.8564 0.941371C10.7056 0.791285 10.5014 0.707031 10.2886 0.707031C10.0759 0.707031 9.87172 0.791285 9.72087 0.941371L8.44531 2.21693L11.8792 5.65082L13.1548 4.37526C13.2294 4.30024 13.2885 4.21123 13.3287 4.11333C13.3689 4.01543 13.3895 3.91057 13.3891 3.80473C13.3887 3.6989 13.3675 3.59417 13.3266 3.49655C13.2858 3.39893 13.226 3.31033 13.1509 3.23582Z" fill="#383A47"/>
</g>
<defs>
<clipPath id="clip0_12217_43233">
<rect width="14" height="14" fill="white"/>
</clipPath>
</defs>
</svg>
