<svg width="16" height="15" viewBox="0 0 16 15" fill="none" xmlns="http://www.w3.org/2000/svg">
<path d="M8 13.5117C9.64062 13.5117 11.0469 12.9258 12.2188 11.7539C13.4141 10.5586 14.0117 9.14062 14.0117 7.5C14.0117 6.9375 13.8828 6.29297 13.625 5.56641C13.3906 4.83984 13.0977 4.25391 12.7461 3.80859L4.30859 12.2461C5.36328 13.0898 6.59375 13.5117 8 13.5117ZM1.98828 7.5C1.98828 8.0625 2.10547 8.70703 2.33984 9.43359C2.59766 10.1602 2.90234 10.7461 3.25391 11.1914L11.6914 2.75391C10.6367 1.91016 9.40625 1.48828 8 1.48828C6.35938 1.48828 4.94141 2.08594 3.74609 3.28125C2.57422 4.45312 1.98828 5.85937 1.98828 7.5ZM2.69141 2.22656C4.16797 0.75 5.9375 0.0117188 8 0.0117188C10.0625 0.0117188 11.8203 0.75 13.2734 2.22656C14.75 3.67969 15.4883 5.4375 15.4883 7.5C15.4883 9.5625 14.75 11.332 13.2734 12.8086C11.8203 14.2617 10.0625 14.9883 8 14.9883C5.9375 14.9883 4.16797 14.2617 2.69141 12.8086C1.23828 11.332 0.511719 9.5625 0.511719 7.5C0.511719 5.4375 1.23828 3.67969 2.69141 2.22656Z" fill="#908E8E"/>
</svg>
