<svg width="15" height="16" viewBox="0 0 15 16" fill="none" xmlns="http://www.w3.org/2000/svg">
<path d="M7.16376 2.64844C6.21383 2.64844 5.3028 3.0258 4.6311 3.6975C3.95939 4.36921 3.58203 5.28023 3.58203 6.23017C3.58203 8.11058 6.77873 13.0474 6.91304 13.2563C6.9401 13.2982 6.97722 13.3327 7.02102 13.3565C7.06482 13.3804 7.11389 13.3929 7.16376 13.3929C7.21363 13.3929 7.26271 13.3804 7.3065 13.3565C7.3503 13.3327 7.38742 13.2982 7.41448 13.2563C7.5488 13.0474 10.7455 8.11058 10.7455 6.23017C10.7455 5.28023 10.3681 4.36921 9.69643 3.6975C9.02472 3.0258 8.1137 2.64844 7.16376 2.64844ZM5.3729 6.23017C5.3729 5.87597 5.47793 5.52972 5.67471 5.23522C5.87149 4.94071 6.15119 4.71117 6.47843 4.57562C6.80566 4.44008 7.16575 4.40461 7.51314 4.47371C7.86054 4.54281 8.17964 4.71338 8.43009 4.96384C8.68055 5.21429 8.85111 5.53339 8.92022 5.88079C8.98932 6.22818 8.95385 6.58826 8.81831 6.9155C8.68276 7.24274 8.45322 7.52243 8.15871 7.71922C7.86421 7.916 7.51796 8.02103 7.16376 8.02103C6.68879 8.02103 6.23328 7.83235 5.89743 7.4965C5.56158 7.16065 5.3729 6.70513 5.3729 6.23017ZM7.16376 7.42408C6.92763 7.42408 6.6968 7.35406 6.50046 7.22287C6.30412 7.09168 6.1511 6.90522 6.06073 6.68706C5.97037 6.4689 5.94672 6.22884 5.99279 5.99725C6.03886 5.76565 6.15257 5.55292 6.31954 5.38595C6.48651 5.21897 6.69925 5.10527 6.93084 5.0592C7.16244 5.01313 7.40249 5.03677 7.62065 5.12714C7.83881 5.2175 8.02527 5.37053 8.15646 5.56687C8.28765 5.7632 8.35767 5.99403 8.35767 6.23017C8.35767 6.54681 8.23188 6.85049 8.00798 7.07439C7.78408 7.29829 7.48041 7.42408 7.16376 7.42408Z" fill="#797979"/>
</svg>
