<svg width="13" height="22" viewBox="0 0 13 22" fill="none" xmlns="http://www.w3.org/2000/svg">
<path d="M10.6523 16.5V3.65234H2.40234V16.5H10.6523ZM5.53906 19.7656C5.82552 20.0234 6.15495 20.1523 6.52734 20.1523C6.89974 20.1523 7.21484 20.0234 7.47266 19.7656C7.75911 19.4792 7.90234 19.1497 7.90234 18.7773C7.90234 18.4049 7.75911 18.0898 7.47266 17.832C7.21484 17.5456 6.89974 17.4023 6.52734 17.4023C6.15495 17.4023 5.82552 17.5456 5.53906 17.832C5.28125 18.0898 5.15234 18.4049 5.15234 18.7773C5.15234 19.1497 5.28125 19.4792 5.53906 19.7656ZM10.2227 0.902344C10.8529 0.902344 11.3828 1.13151 11.8125 1.58984C12.2708 2.04818 12.5 2.59245 12.5 3.22266V18.7773C12.5 19.4076 12.2708 19.9518 11.8125 20.4102C11.3828 20.8685 10.8529 21.0977 10.2227 21.0977H2.875C2.24479 21.0977 1.70052 20.8685 1.24219 20.4102C0.8125 19.9518 0.597656 19.4076 0.597656 18.7773V3.22266C0.597656 2.59245 0.8125 2.04818 1.24219 1.58984C1.70052 1.13151 2.24479 0.902344 2.875 0.902344H10.2227Z" fill="#515151"/>
</svg>
