<svg width="20" height="20" viewBox="0 0 20 20" fill="none" xmlns="http://www.w3.org/2000/svg">
<path d="M14.168 17.0827H5.83464C3.33464 17.0827 1.66797 15.8327 1.66797 12.916V7.08268C1.66797 4.16602 3.33464 2.91602 5.83464 2.91602H14.168C16.668 2.91602 18.3346 4.16602 18.3346 7.08268V12.916C18.3346 15.8327 16.668 17.0827 14.168 17.0827Z" stroke="#3DC5A1" stroke-width="1.5" stroke-miterlimit="10" stroke-linecap="round" stroke-linejoin="round"/>
<path d="M10 12.5C11.3807 12.5 12.5 11.3807 12.5 10C12.5 8.61929 11.3807 7.5 10 7.5C8.61929 7.5 7.5 8.61929 7.5 10C7.5 11.3807 8.61929 12.5 10 12.5Z" stroke="#3DC5A1" stroke-width="1.5" stroke-miterlimit="10" stroke-linecap="round" stroke-linejoin="round"/>
<path d="M7.08333 5H5.83333C4.68333 5 3.75 5.93333 3.75 7.08333V8.33333" stroke="#3DC5A1" stroke-width="1.5" stroke-miterlimit="10" stroke-linecap="round" stroke-linejoin="round"/>
<path d="M12.918 5H14.168C15.318 5 16.2513 5.93333 16.2513 7.08333V8.33333" stroke="#3DC5A1" stroke-width="1.5" stroke-miterlimit="10" stroke-linecap="round" stroke-linejoin="round"/>
<path d="M7.08333 14.9993H5.83333C4.68333 14.9993 3.75 14.066 3.75 12.916V11.666" stroke="#3DC5A1" stroke-width="1.5" stroke-miterlimit="10" stroke-linecap="round" stroke-linejoin="round"/>
<path d="M12.918 14.9993H14.168C15.318 14.9993 16.2513 14.066 16.2513 12.916V11.666" stroke="#3DC5A1" stroke-width="1.5" stroke-miterlimit="10" stroke-linecap="round" stroke-linejoin="round"/>
</svg>
