<svg width="14" height="17" viewBox="0 0 14 17" fill="none" xmlns="http://www.w3.org/2000/svg">
<path d="M12 11.3203L13.6797 13V13.8203H0.320312V13L2 11.3203V7.17969C2 5.8776 2.32552 4.74479 2.97656 3.78125C3.65365 2.81771 4.57812 2.19271 5.75 1.90625V1.32031C5.75 0.981771 5.86719 0.695312 6.10156 0.460938C6.33594 0.200521 6.63542 0.0703125 7 0.0703125C7.36458 0.0703125 7.66406 0.200521 7.89844 0.460938C8.13281 0.695312 8.25 0.981771 8.25 1.32031V1.90625C9.42188 2.19271 10.3333 2.81771 10.9844 3.78125C11.6615 4.74479 12 5.8776 12 7.17969V11.3203ZM7 16.3203C6.53125 16.3203 6.1276 16.1641 5.78906 15.8516C5.47656 15.5391 5.32031 15.1484 5.32031 14.6797H8.67969C8.67969 15.1224 8.51042 15.513 8.17188 15.8516C7.83333 16.1641 7.44271 16.3203 7 16.3203Z" fill="#9EA0AB"/>
</svg>
