<svg width="22" height="22" viewBox="0 0 22 22" fill="none" xmlns="http://www.w3.org/2000/svg">
<path d="M21.1289 17.4023C21.3294 17.5169 21.4154 17.7174 21.3867 18.0039C21.3867 18.2617 21.2721 18.4909 21.043 18.6914L18.9375 20.7969C18.5078 21.2266 18.0781 21.2266 17.6484 20.7969L9.3125 12.4609C8.28125 12.8906 7.17839 12.9909 6.00391 12.7617C4.85807 12.5039 3.85547 11.9453 2.99609 11.0859C2.07943 10.1693 1.50651 9.08073 1.27734 7.82031C1.04818 6.5599 1.22005 5.38542 1.79297 4.29688L5.83203 8.25L8.58203 5.5L4.62891 1.54688C5.71745 1.03125 6.89193 0.873698 8.15234 1.07422C9.41276 1.27474 10.5013 1.83333 11.418 2.75C12.2773 3.60938 12.8216 4.6263 13.0508 5.80078C13.3086 6.94661 13.2227 8.03516 12.793 9.06641L21.1289 17.4023Z" fill="#9EA0AB"/>
</svg>
