<svg width="21" height="14" viewBox="0 0 21 14" fill="none" xmlns="http://www.w3.org/2000/svg">
<path d="M8.73438 5.06641C9.27865 4.52214 9.92318 4.25 10.668 4.25C11.4128 4.25 12.0573 4.52214 12.6016 5.06641C13.1458 5.61068 13.418 6.25521 13.418 7C13.418 7.74479 13.1458 8.38932 12.6016 8.93359C12.0573 9.47786 11.4128 9.75 10.668 9.75C9.92318 9.75 9.27865 9.47786 8.73438 8.93359C8.1901 8.38932 7.91797 7.74479 7.91797 7C7.91797 6.25521 8.1901 5.61068 8.73438 5.06641ZM7.40234 10.2656C8.31901 11.1536 9.40755 11.5977 10.668 11.5977C11.9284 11.5977 13.0026 11.1536 13.8906 10.2656C14.8073 9.34896 15.2656 8.26042 15.2656 7C15.2656 5.73958 14.8073 4.66536 13.8906 3.77734C13.0026 2.86068 11.9284 2.40234 10.668 2.40234C9.40755 2.40234 8.31901 2.86068 7.40234 3.77734C6.51432 4.66536 6.07031 5.73958 6.07031 7C6.07031 8.26042 6.51432 9.34896 7.40234 10.2656ZM4.52344 2.01562C6.35677 0.755208 8.40495 0.125 10.668 0.125C12.931 0.125 14.9792 0.755208 16.8125 2.01562C18.6458 3.27604 19.9635 4.9375 20.7656 7C19.9635 9.0625 18.6458 10.724 16.8125 11.9844C14.9792 13.2448 12.931 13.875 10.668 13.875C8.40495 13.875 6.35677 13.2448 4.52344 11.9844C2.6901 10.724 1.3724 9.0625 0.570312 7C1.3724 4.9375 2.6901 3.27604 4.52344 2.01562Z" fill="#9EA0AB"/>
</svg>
