<svg width="16" height="15" viewBox="0 0 16 15" fill="none" xmlns="http://www.w3.org/2000/svg">
<path d="M3.80905 8.20412L5.07519 9.47026L5.91929 8.62617L4.65374 7.36003L5.91929 6.09388L7.60807 7.78207L8.45217 6.93798L6.76458 5.24919L8.03012 3.98305L9.29626 5.24919L10.141 4.4051L8.87422 3.13896L10.563 1.45017C10.7961 1.21713 11.174 1.21713 11.4071 1.45017L14.362 4.4051C14.5951 4.63821 14.5951 5.01608 14.362 5.24919L5.49724 14.114C5.26413 14.347 4.88626 14.347 4.65315 14.114L1.69822 11.159C1.46518 10.9259 1.46518 10.5481 1.69822 10.315L3.80905 8.20412Z" fill="#797979"/>
</svg>
