<svg width="14" height="15" viewBox="0 0 14 15" fill="none" xmlns="http://www.w3.org/2000/svg">
<path d="M9.25 5.25V2.26172H1.76172V5.25H9.25ZM5.41797 12.0703C5.86328 12.5156 6.39062 12.7383 7 12.7383C7.60938 12.7383 8.13672 12.5156 8.58203 12.0703C9.02734 11.625 9.25 11.0977 9.25 10.4883C9.25 9.87891 9.02734 9.35156 8.58203 8.90625C8.13672 8.46094 7.60938 8.23828 7 8.23828C6.39062 8.23828 5.86328 8.46094 5.41797 8.90625C4.97266 9.35156 4.75 9.87891 4.75 10.4883C4.75 11.0977 4.97266 11.625 5.41797 12.0703ZM10.7617 0.75L13.75 3.73828V12.7383C13.75 13.1367 13.5977 13.4883 13.293 13.793C12.9883 14.0977 12.6367 14.25 12.2383 14.25H1.76172C1.33984 14.25 0.976562 14.1094 0.671875 13.8281C0.390625 13.5234 0.25 13.1602 0.25 12.7383V2.26172C0.25 1.83984 0.390625 1.48828 0.671875 1.20703C0.976562 0.902344 1.33984 0.75 1.76172 0.75H10.7617Z" fill="#EB5E55"/>
</svg>
