<svg width="19" height="20" viewBox="0 0 19 20" fill="none" xmlns="http://www.w3.org/2000/svg">
<path d="M6.4867 15.7578C7.57525 16.3307 8.6065 16.6172 9.58045 16.6172C10.5544 16.6172 11.5713 16.3307 12.6312 15.7578C13.7198 15.1849 14.5362 14.4831 15.0805 13.6523C15.0518 12.8503 14.4073 12.1771 13.1469 11.6328C11.8864 11.0885 10.6976 10.8164 9.58045 10.8164C8.46327 10.8164 7.27447 11.0885 6.01405 11.6328C4.75363 12.1484 4.1091 12.8216 4.08045 13.6523C4.62473 14.4831 5.42681 15.1849 6.4867 15.7578ZM11.514 4.41406C10.9698 3.86979 10.3252 3.59766 9.58045 3.59766C8.83566 3.59766 8.19113 3.86979 7.64686 4.41406C7.10259 4.95833 6.83045 5.60286 6.83045 6.34766C6.83045 7.09245 7.10259 7.73698 7.64686 8.28125C8.19113 8.82552 8.83566 9.09766 9.58045 9.09766C10.3252 9.09766 10.9698 8.82552 11.514 8.28125C12.0583 7.73698 12.3305 7.09245 12.3305 6.34766C12.3305 5.60286 12.0583 4.95833 11.514 4.41406ZM3.09217 3.55469C4.89686 1.75 7.05962 0.847656 9.58045 0.847656C12.1013 0.847656 14.2497 1.75 16.0258 3.55469C17.8305 5.33073 18.7328 7.47917 18.7328 10C18.7328 12.5208 17.8305 14.6836 16.0258 16.4883C14.2497 18.2643 12.1013 19.1523 9.58045 19.1523C7.05962 19.1523 4.89686 18.2643 3.09217 16.4883C1.31613 14.6836 0.428111 12.5208 0.428111 10C0.428111 7.47917 1.31613 5.33073 3.09217 3.55469Z" fill="#9EA0AB"/>
</svg>
