<svg width="20" height="20" viewBox="0 0 20 20" fill="none" xmlns="http://www.w3.org/2000/svg">
<path d="M10.5495 2.0978L10.5245 2.15613L8.10781 7.76446H5.73281C5.16615 7.76446 4.62448 7.88113 4.13281 8.08946L5.59115 4.60613L5.62448 4.5228L5.68281 4.38946C5.69948 4.33946 5.71615 4.28946 5.74115 4.2478C6.83281 1.7228 8.06615 1.1478 10.5495 2.0978Z" stroke="#3DC5A1" stroke-width="1.5" stroke-linecap="round" stroke-linejoin="round"/>
<path d="M15.0427 7.93099C14.6677 7.81432 14.2677 7.76432 13.8677 7.76432H8.10938L10.526 2.15599L10.551 2.09766C10.676 2.13932 10.7927 2.19766 10.9177 2.24766L12.7594 3.02266C13.7844 3.44766 14.501 3.88932 14.9344 4.42266C15.0177 4.52266 15.0844 4.61432 15.1427 4.72266C15.2177 4.83932 15.276 4.95599 15.3094 5.08099C15.3427 5.15599 15.3677 5.23099 15.3844 5.29766C15.6094 5.99766 15.476 6.85599 15.0427 7.93099Z" stroke="#3DC5A1" stroke-width="1.5" stroke-linecap="round" stroke-linejoin="round"/>
<path d="M17.9341 11.8323V13.4573C17.9341 13.624 17.9258 13.7906 17.9174 13.9573C17.7591 16.8656 16.1341 18.3323 13.0508 18.3323H6.55078C6.35078 18.3323 6.15078 18.3156 5.95911 18.2906C3.30911 18.1156 1.89245 16.699 1.71745 14.049C1.69245 13.8573 1.67578 13.6573 1.67578 13.4573V11.8323C1.67578 10.1573 2.69245 8.71563 4.14245 8.09063C4.64245 7.88229 5.17578 7.76562 5.74245 7.76562H13.8758C14.2841 7.76562 14.6841 7.82396 15.0508 7.93229C16.7091 8.44063 17.9341 9.99063 17.9341 11.8323Z" stroke="#3DC5A1" stroke-width="1.5" stroke-linecap="round" stroke-linejoin="round"/>
<path d="M5.59297 4.60742L4.13464 8.09075C2.68464 8.71575 1.66797 10.1574 1.66797 11.8324V9.39076C1.66797 7.02409 3.3513 5.04909 5.59297 4.60742Z" stroke="#3DC5A1" stroke-width="1.5" stroke-linecap="round" stroke-linejoin="round"/>
<path d="M17.9302 9.39037V11.832C17.9302 9.9987 16.7135 8.44036 15.0469 7.94036C15.4802 6.85703 15.6052 6.00703 15.3969 5.2987C15.3802 5.2237 15.3552 5.1487 15.3219 5.08203C16.8719 5.88203 17.9302 7.5237 17.9302 9.39037Z" stroke="#3DC5A1" stroke-width="1.5" stroke-linecap="round" stroke-linejoin="round"/>
</svg>
