<svg width="24" height="24" viewBox="0 0 24 24" fill="none" xmlns="http://www.w3.org/2000/svg">
<path d="M21.4913 14.1453C21.4186 14.2544 21.3095 14.3271 21.2004 14.3271H2.36401C2.25492 14.3271 2.10946 14.2544 2.0731 14.1453C2.00037 14.0362 2.00037 13.8907 2.0731 13.7816L2.65492 12.7998C3.01855 12.9089 3.41855 12.9816 3.81855 12.9816H20.2549C20.5095 12.9816 20.764 12.9453 21.0186 12.9089L21.5276 13.818C21.564 13.8907 21.564 14.0362 21.4913 14.1453ZM21.7095 20.618C19.3095 19.7089 16.7276 15.5271 16.6913 15.4907C16.5822 15.3089 16.364 15.2725 16.2186 15.3816C16.0367 15.4907 16.0004 15.7089 16.1095 15.8543C16.2186 15.9998 18.8367 20.2907 21.4549 21.2725C21.6367 21.3453 21.8549 21.2362 21.8913 21.0544C22.0004 20.8725 21.8913 20.6544 21.7095 20.618ZM8.43674 15.3453C8.25492 15.2362 8.03674 15.3089 7.96401 15.4544C7.92764 15.4907 5.34583 19.7089 2.94583 20.5816C2.76401 20.6544 2.65492 20.8362 2.72765 21.018C2.80037 21.1998 2.98219 21.3089 3.16401 21.2362C5.81855 20.2907 8.4731 15.9998 8.58219 15.8543C8.65492 15.6725 8.61855 15.4544 8.43674 15.3453ZM12.0004 15.3089C11.8186 15.3089 11.6367 15.4543 11.6367 15.6725V20.7634C11.6367 20.9453 11.7822 21.1271 12.0004 21.1271C12.1822 21.1271 12.364 20.9816 12.364 20.7634V15.6362C12.364 15.4544 12.1822 15.3089 12.0004 15.3089Z" fill="#515151"/>
<path d="M15.9271 6.40012C16.1279 6.40012 16.2907 6.23732 16.2907 6.03649C16.2907 5.83566 16.1279 5.67285 15.9271 5.67285C15.7263 5.67285 15.5635 5.83566 15.5635 6.03649C15.5635 6.23732 15.7263 6.40012 15.9271 6.40012Z" fill="#515151"/>
<path d="M0.363281 9.2002C0.545099 10.9093 1.99964 12.2547 3.7451 12.2547H20.1815C21.9633 12.2547 23.4178 10.9093 23.5633 9.2002H0.363281Z" fill="#515151"/>
<path d="M19.7455 6.40012C19.9463 6.40012 20.1091 6.23732 20.1091 6.03649C20.1091 5.83566 19.9463 5.67285 19.7455 5.67285C19.5446 5.67285 19.3818 5.83566 19.3818 6.03649C19.3818 6.23732 19.5446 6.40012 19.7455 6.40012Z" fill="#515151"/>
<path d="M23.636 8.47274V6.1091C23.636 4.21819 22.1087 2.69092 20.2178 2.69092H3.78146C1.89055 2.72728 0.363281 4.25455 0.363281 6.1091V8.47274H23.636ZM19.7451 4.98183C20.3269 4.98183 20.7996 5.45455 20.7996 6.03637C20.7996 6.61819 20.3269 7.09092 19.7451 7.09092C19.1633 7.09092 18.6906 6.61819 18.6906 6.03637C18.6906 5.45455 19.1633 4.98183 19.7451 4.98183ZM15.9269 4.98183C16.5087 4.98183 16.9815 5.45455 16.9815 6.03637C16.9815 6.61819 16.5087 7.09092 15.9269 7.09092C15.3451 7.09092 14.8724 6.61819 14.8724 6.03637C14.8724 5.45455 15.3087 4.98183 15.9269 4.98183Z" fill="#515151"/>
</svg>
