<svg width="17" height="16" viewBox="0 0 17 16" fill="none" xmlns="http://www.w3.org/2000/svg">
<path d="M1.83301 16H1.16699C0.766992 16 0.5 15.733 0.5 15.333V9.33301C0.500145 8.93319 0.767101 8.66699 1.16699 8.66699H1.83301V16ZM13.167 0C13.5668 0.000144604 13.833 0.267101 13.833 0.666992V15.333C13.833 15.7329 13.5668 15.9999 13.167 16H9.16699V13.333H7.83301V16H3.83301C3.43319 15.9999 3.16699 15.7329 3.16699 15.333V0.666992C3.16699 0.267101 3.43319 0.000144684 3.83301 0H13.167ZM15.833 8.66699C16.2329 8.66699 16.4999 8.93319 16.5 9.33301V15.333C16.5 15.733 16.233 16 15.833 16H15.167V8.66699H15.833ZM5.16602 10V11.333H7.16602V10H5.16602ZM9.83301 10V11.333H11.833V10H9.83301ZM5.16602 8.66699H7.16602V7.33301H5.16602V8.66699ZM9.83301 8.66699H11.833V7.33301H9.83301V8.66699ZM5.16602 4.66699V6H7.16602V4.66699H5.16602ZM9.83301 4.66699V6H11.833V4.66699H9.83301ZM5.16602 3.33301H7.16602V2H5.16602V3.33301ZM9.83301 3.33301H11.833V2H9.83301V3.33301Z" fill="white"/>
</svg>
