<svg width="24" height="24" viewBox="0 0 24 24" fill="none" xmlns="http://www.w3.org/2000/svg">
<path d="M21.4323 14.6732L19.6878 21.0565C19.5159 21.6726 18.9571 22.0989 18.3159 22.0989H5.68185C5.04065 22.0989 4.48185 21.6726 4.30632 21.0565L2.56543 14.6732H21.4323ZM13.172 5.09115V10.7652H11.1159V5.041C11.1159 4.50727 10.729 4.01294 10.1989 3.95921C9.58632 3.89831 9.0705 4.3819 9.0705 4.98011V5.73593C9.0705 5.88637 8.94871 6.01175 8.79826 6.01175H7.28662C7.13975 6.01175 7.01438 5.88637 7.01438 5.73593V4.98011C7.01438 3.14608 8.62632 1.681 10.5033 1.92817C12.0544 2.12876 13.172 3.52578 13.172 5.09115ZM8.86517 9.15192C8.86517 9.65878 8.49773 10.0728 8.04014 10.0728C7.58601 10.0728 7.21852 9.65878 7.21852 9.15192C7.21852 8.64505 8.04014 7.32953 8.04014 7.32953C8.04014 7.32953 8.86517 8.64505 8.86517 9.15192Z" fill="#515151"/>
<path d="M22.7425 11.8434C22.5163 11.6213 22.2079 11.4815 21.8665 11.4815H18.8779V10.6793C18.8779 10.3032 18.5734 9.99511 18.1973 9.99511H17.4343V9.02794H19.0605C19.2576 9.02794 19.4187 8.86675 19.4187 8.66973C19.4187 8.46914 19.2576 8.31152 19.0605 8.31152H17.0761C16.8755 8.31152 16.7179 8.46914 16.7179 8.66973V9.99511H15.9513C15.5787 9.99511 15.2743 10.3032 15.2743 10.6793V11.4815H2.13344C1.45073 11.4815 0.895508 12.0367 0.895508 12.7194C0.895508 13.0608 1.03532 13.3692 1.25737 13.5954C1.48362 13.8175 1.79203 13.9574 2.13344 13.9574H21.8665C22.5492 13.9574 23.1045 13.4021 23.1045 12.7194C23.1045 12.3781 22.9646 12.0696 22.7425 11.8434Z" fill="#515151"/>
</svg>
