<svg width="18" height="19" viewBox="0 0 18 19" fill="none" xmlns="http://www.w3.org/2000/svg">
<path fill-rule="evenodd" clip-rule="evenodd" d="M6.6583 5.28392C6.6583 6.68392 5.50414 7.81866 4.07915 7.81866C2.65499 7.81866 1.5 6.68392 1.5 5.28392C1.5 3.88474 2.65499 2.75 4.07915 2.75C5.50414 2.75 6.6583 3.88474 6.6583 5.28392ZM15.37 4.17374C15.9933 4.17374 16.5 4.67152 16.5 5.28392C16.5 5.89714 15.9933 6.39492 15.37 6.39492H10.4384C9.8142 6.39492 9.30754 5.89714 9.30754 5.28392C9.30754 4.67152 9.8142 4.17374 10.4384 4.17374H15.37ZM2.63083 12.4685H7.56247C8.18663 12.4685 8.69329 12.9662 8.69329 13.5795C8.69329 14.1919 8.18663 14.6905 7.56247 14.6905H2.63083C2.00666 14.6905 1.5 14.1919 1.5 13.5795C1.5 12.9662 2.00666 12.4685 2.63083 12.4685ZM13.9208 16.0833C15.3458 16.0833 16.5 14.9486 16.5 13.5494C16.5 12.1494 15.3458 11.0147 13.9208 11.0147C12.4967 11.0147 11.3417 12.1494 11.3417 13.5494C11.3417 14.9486 12.4967 16.0833 13.9208 16.0833Z" fill="#521282"/>
</svg>
