<svg width="24" height="24" viewBox="0 0 24 24" fill="none" xmlns="http://www.w3.org/2000/svg">
<g clip-path="url(#clip0_575_3015)">
<path d="M20.6322 2.232C20.416 1.58189 20.0006 1.01637 19.4449 0.615717C18.8891 0.215064 18.2213 -0.000366625 17.5362 8.84239e-07H6.4642C6.03541 -0.000314842 5.61076 0.0839221 5.21456 0.247892C4.81836 0.411861 4.45838 0.652345 4.15521 0.955583C3.85205 1.25882 3.61165 1.61886 3.44778 2.0151C3.28391 2.41134 3.19978 2.83601 3.2002 3.2648C3.2002 5.0976 3.3322 6.9488 3.5906 8.764L3.857 10.6256C3.91287 11.0062 4.10333 11.3541 4.39381 11.6063C4.68429 11.8585 5.05554 11.9981 5.4402 12H7.2586C7.4106 12.2776 7.5818 12.544 7.769 12.8H6.4002C5.5178 12.8 4.8002 13.5176 4.8002 14.4C4.8002 14.9952 5.1306 15.5096 5.6138 15.7848C5.6858 17.8688 6.9386 19.7704 8.9866 20.8304C8.9898 20.8552 8.977 20.884 8.9498 20.9104C8.197 21.6384 7.7818 22.5936 7.7818 23.6C7.7818 23.7061 7.82394 23.8078 7.89895 23.8828C7.97397 23.9579 8.07571 24 8.1818 24H15.8186C15.9247 24 16.0264 23.9579 16.1014 23.8828C16.1765 23.8078 16.2186 23.7061 16.2186 23.6C16.2186 22.5936 15.8034 21.6384 15.0506 20.9104C15.0234 20.884 15.0106 20.8552 15.0658 20.7744C17.0418 19.7792 18.2866 17.9072 18.3818 15.7872C18.6291 15.6494 18.8352 15.4483 18.979 15.2045C19.1229 14.9607 19.1992 14.6831 19.2002 14.4C19.2002 13.5176 18.4826 12.8 17.6002 12.8H16.2306C16.4178 12.544 16.589 12.2776 16.741 12H18.5602C18.945 11.9983 19.3164 11.8587 19.6071 11.6066C19.8977 11.3544 20.0883 11.0063 20.1442 10.6256L20.4106 8.764C20.669 6.948 20.801 5.0976 20.801 3.2648C20.801 2.9128 20.745 2.5656 20.633 2.232H20.6322ZM16.1346 11.4432C16.1298 11.4536 16.1242 11.4632 16.1202 11.4736C15.8721 11.9529 15.5641 12.3986 15.2034 12.8H8.797C8.43278 12.3945 8.12224 11.9439 7.873 11.4592C7.869 11.4472 7.8634 11.4368 7.857 11.4256C7.4378 10.592 7.2002 9.6816 7.2002 8.8C7.2002 6.2104 9.297 3.2 12.0002 3.2C14.7034 3.2 16.8002 6.2104 16.8002 8.8C16.8002 9.6872 16.5602 10.6056 16.1346 11.4432ZM18.0002 2.4H17.6002C17.591 2.60598 17.5027 2.80048 17.3537 2.94298C17.2046 3.08548 17.0064 3.16501 16.8002 3.16501C16.594 3.16501 16.3958 3.08548 16.2467 2.94298C16.0977 2.80048 16.0094 2.60598 16.0002 2.4C16.0002 2.0136 16.2802 1.7064 16.6442 1.632C16.6935 1.61097 16.7466 1.60008 16.8002 1.6H18.0002C18.1063 1.6 18.208 1.64214 18.283 1.71716C18.3581 1.79217 18.4002 1.89391 18.4002 2C18.4002 2.10609 18.3581 2.20783 18.283 2.28284C18.208 2.35786 18.1063 2.4 18.0002 2.4Z" fill="#515151"/>
<path d="M9.3104 6.0561C9.21896 6.00251 9.11005 5.98724 9.0074 6.01361C8.90474 6.03999 8.81668 6.10587 8.7624 6.1969C8.2704 7.0289 8 7.9537 8 8.8001C8 8.90619 8.04214 9.00793 8.11716 9.08294C8.19217 9.15796 8.29391 9.2001 8.4 9.2001C8.50609 9.2001 8.60783 9.15796 8.68284 9.08294C8.75786 9.00793 8.8 8.90619 8.8 8.8001C8.8 8.1041 9.0376 7.3041 9.4512 6.6033C9.47795 6.55808 9.49552 6.50802 9.50292 6.45601C9.51032 6.40399 9.5074 6.35102 9.49433 6.30013C9.48125 6.24924 9.45828 6.20143 9.42672 6.15942C9.39516 6.11741 9.35563 6.08203 9.3104 6.0553V6.0561Z" fill="#515151"/>
</g>
<defs>
<clipPath id="clip0_575_3015">
<rect width="24" height="24" fill="white"/>
</clipPath>
</defs>
</svg>
